<svg height="511pt" viewBox="0 0 511.99993 511" width="511pt" xmlns="http://www.w3.org/2000/svg"><path d="m332.5625 396.976562h-299.605469v-363.519531h363.519531v245.675781" fill="#9eebfc"/><path d="m58.421875 33.457031c0 14.0625-11.402344 25.464844-25.464844 25.464844-14.066406 0-25.46875-11.402344-25.46875-25.464844 0-14.066406 11.402344-25.46875 25.46875-25.46875 14.0625 0 25.464844 11.402344 25.464844 25.46875zm0 0" fill="#4172cc"/><path d="m421.445312 33.957031c0 14.0625-11.402343 25.464844-25.46875 25.464844-14.0625 0-25.464843-11.402344-25.464843-25.464844 0-14.066406 11.402343-25.46875 25.464843-25.46875 14.066407 0 25.46875 11.402344 25.46875 25.46875zm0 0" fill="#4172cc"/><path d="m58.421875 392.484375c0 14.0625-11.402344 25.464844-25.464844 25.464844-14.066406 0-25.46875-11.402344-25.46875-25.464844 0-14.066406 11.402344-25.46875 25.46875-25.46875 14.0625 0 25.464844 11.402344 25.464844 25.46875zm0 0" fill="#4172cc"/><path d="m359.90625 361.945312-24.113281-44.648437c-4.601563-8.515625-1.425781-19.152344 7.09375-23.75 8.515625-4.601563 19.148437-1.425781 23.75 7.09375l24.113281 44.644531" fill="#fec7a2"/><path d="m366.636719 300.640625c-4.601563-8.519531-15.234375-11.695313-23.753907-7.09375-3.222656 1.742187-5.679687 4.347656-7.238281 7.378906 5.558594.585938 10.738281 3.808594 13.59375 9.097657l24.113281 44.648437 17.398438-9.386719zm0 0" fill="#f4b085"/><path d="m390.75 345.285156-20.957031-38.796875c-4.597657-8.515625-1.421875-19.148437 7.09375-23.75 8.515625-4.601562 19.152343-1.425781 23.75 7.09375l20.957031 38.796875" fill="#fec7a2"/><path d="m400.636719 289.828125c-4.597657-8.515625-15.234375-11.691406-23.75-7.089844-3.222657 1.742188-5.679688 4.347657-7.242188 7.378907 5.558594.585937 10.742188 3.808593 13.597657 9.097656l20.953124 38.796875 17.394532-9.386719zm0 0" fill="#f4b085"/><path d="m421.589844 328.628906-14.632813-27.097656c-4.601562-8.519531-1.425781-19.152344 7.089844-23.753906 8.519531-4.597656 19.152344-1.421875 23.753906 7.09375l23.597657 43.691406 18.070312 33.457031c9.730469 18.015625 13.394531 38.6875 10.453125 58.953125l17.03125 31.53125-98.71875 53.269532-.019531.058593-16.132813-29.871093c-16.507812 8.917968-36.453125 8.652343-52.71875-.695313l-19.800781-11.382813-62.710938-37.902343c-5.214843-3.152344-6.746093-10.019531-3.363281-15.085938 7.753907-11.613281 23.351563-14.9375 35.164063-7.488281l44.566406 28.050781c3.503906 2.203125 7.921875 2.351563 11.5625.382813 5.570312-3.007813 7.652344-9.96875 4.640625-15.542969l-6.46875-11.972656-82.234375-152.261719c-4.601562-8.519531-1.425781-19.152344 7.089844-23.753906 8.519531-4.597656 19.152344-1.421875 23.753906 7.09375l68.34375 126.539062" fill="#fec7a2"/><g fill="#f4b085"><path d="m271.257812 412.792969 44.566407 28.050781c3.503906 2.203125 7.921875 2.351562 11.5625.386719 3.707031-2.003907 5.851562-5.75 6-9.675781-.054688-.035157-.113281-.0625-.167969-.097657l-44.566406-28.050781c-11.125-7.015625-25.609375-4.472656-33.734375 5.554688 5.53125-.566407 11.28125.644531 16.339843 3.832031zm0 0"/><path d="m274.164062 244.789062 68.347657 126.542969 17.390625-9.394531-68.339844-126.535156c-4.601562-8.515625-15.234375-11.691406-23.75-7.09375-3.226562 1.742187-5.679688 4.351562-7.242188 7.378906 5.554688.589844 10.738282 3.8125 13.59375 9.101562zm0 0"/><path d="m408.214844 505.832031.019531-.058593-.042969.019531zm0 0"/><path d="m479.46875 362.019531-18.070312-33.457031-23.597657-43.691406c-4.601562-8.515625-15.234375-11.691406-23.753906-7.09375-3.222656 1.742187-5.679687 4.351562-7.238281 7.378906 5.554687.589844 10.738281 3.8125 13.59375 9.101562l23.597656 43.691407 18.070312 33.453125c9.730469 18.019531 13.398438 38.691406 10.457032 58.957031l17.027344 31.53125 17.398437-9.386719-17.03125-31.53125c2.941406-20.261718-.722656-40.9375-10.453125-58.953125zm0 0"/></g><path d="m442.75 281.710938c-3.144531-5.851563-8.382812-10.125-14.746094-12.039063-6.359375-1.910156-13.085937-1.230469-18.9375 1.917969-1.890625 1.015625-3.59375 2.242187-5.101562 3.632812v-209.296875c14.324218-3.578125 24.96875-16.550781 24.96875-31.96875 0-18.171875-14.785156-32.957031-32.957032-32.957031-15.417968 0-28.390624 10.640625-31.972656 24.964844h-298.960937c-3.398438-14.570313-16.492188-25.464844-32.085938-25.464844-18.171875 0-32.957031 14.785156-32.957031 32.957031 0 15.59375 10.894531 28.683594 25.464844 32.085938v41.816406c0 9.640625 14.980468 9.707031 14.980468 0v-41.816406c12.167969-2.839844 21.757813-12.429688 24.597657-24.597657h298.730469c2.726562 12.570313 12.640624 22.488282 25.214843 25.214844v207.839844c-5.519531-1.136719-11.449219-.425781-16.785156 2.449219-4.511719 2.425781-8.070313 6.105469-10.347656 10.574219-7.082031-3.722657-15.832031-3.980469-23.390625.085937-3.046875 1.640625-5.65625 3.859375-7.738282 6.496094l-32.917968-61.191407c-4.527344-8.417968-13.730469-13.589843-23.289063-13.0625 5.441407-4.285156 2.332031-13.371093-4.625-13.371093h-47.9375v-47.9375c0-9.640625-14.980469-9.707031-14.980469 0v47.9375h-47.9375c-9.640624 0-9.707031 14.976562 0 14.976562h47.9375v47.9375c0 9.640625 14.980469 9.707031 14.980469 0v-47.9375h45.089844c-.996094.382813-1.972656.824219-2.921875 1.335938-5.851562 3.148437-10.128906 8.386719-12.039062 14.746093-1.910157 6.363282-1.230469 13.089844 1.917968 18.941407l71.820313 133.507812h-260.054688c-1.289062-14.253906-11.695312-25.910156-25.324219-29.09375v-211.089843c0-9.640626-14.980468-9.707032-14.980468 0v211.089843c-14.570313 3.402344-25.464844 16.492188-25.464844 32.089844 0 18.171875 14.785156 32.953125 32.957031 32.953125 13.945313 0 25.886719-8.710938 30.691407-20.972656h184.210937c-.3125.425781-.617187.855468-.914063 1.296875-2.734374 4.082031-3.695312 9.175781-2.632812 13.976562 1.058594 4.796875 4.078125 9.011719 8.28125 11.5625l62.125 37.691407c.046875.027343.09375.054687.140625.082031l19.621094 11.320312c16.304687 9.410157 35.546875 10.78125 52.757812 4.039063l12.613281 23.449218c4.570313 8.5 17.765626 1.402344 13.195313-7.097656l-15.953125-29.648437c-1.914062-3.5625-6.574219-4.96875-10.144531-3.046875-14.199219 7.636718-31.015625 7.386718-44.980469-.667969l-19.550781-11.28125-62.054688-37.648437c-1.503906-.910157-1.953125-2.929688-.972656-4.390626 5.492187-8.195312 16.324219-10.480468 24.660156-5.207031l44.152344 27.890625c5.742187 3.628906 13.027344 3.882813 19.011719.664063 9.160156-4.925781 12.601562-16.386719 7.675781-25.550781l-87.695313-163.015626c-5.988281-11.132812 11.359376-20.636718 17.421876-9.371093l43.726562 81.28125v.003906l23.839844 44.316406c4.449218 8.269531 17.957031 1.761719 13.191406-7.097656l-23.84375-44.320313c-6.015625-11.210937 11.386719-20.59375 17.425781-9.367187l23.839844 44.316406c4.410156 8.195313 18.023437 1.882813 13.191406-7.097656l-20.71875-38.515625c-6.019531-11.214844 11.414063-20.535156 17.425781-9.363281l6.242188 11.597656c0 .007813.003906.011719.003906.015625l14.472656 26.894531c4.546876 8.460938 17.792969 1.457031 13.191407-7.09375l-14.46875-26.898437c-5.992188-11.132813 11.355469-20.636719 17.421875-9.375l23.328125 43.371094c4.570312 8.5 17.765625 1.402343 13.191406-7.097657zm-409.792969 128.746093c-9.914062 0-17.976562-8.0625-17.976562-17.972656 0-9.914063 8.0625-17.976563 17.976562-17.976563 9.910157 0 17.976563 8.0625 17.976563 17.976563 0 9.910156-8.066406 17.972656-17.976563 17.972656zm307.164063 13.800781c-1.234375.664063-2.734375.613282-3.917969-.136718l-31.113281-19.65625h27.472656c.429688 0 .847656-.042969 1.257812-.113282l7.878907 14.644532c1.015625 1.886718.304687 4.246094-1.578125 5.261718zm-307.164063-372.824218c-9.914062 0-17.976562-8.066406-17.976562-17.976563 0-9.914062 8.0625-17.976562 17.976562-17.976562 9.910157 0 17.976563 8.0625 17.976563 17.976562 0 9.910157-8.066406 17.976563-17.976563 17.976563zm345.042969-17.476563c0-9.914062 8.066406-17.976562 17.976562-17.976562 9.914063 0 17.976563 8.0625 17.976563 17.976562 0 9.910157-8.0625 17.976563-17.976563 17.976563-9.910156 0-17.976562-8.066406-17.976562-17.976563zm0 0"/><path d="m511.050781 448.066406-15.683593-29.160156c2.34375-19.226562-.796876-38.570312-9.136719-56.105469-.71875-1.515625-1.488281-3.035156-2.285157-4.515625-4.566406-8.488281-17.792968-1.445312-13.191406 7.101563.679688 1.257812 1.332032 2.554687 1.949219 3.847656 7.421875 15.605469 10.015625 32.894531 7.507813 49.996094-.234376 1.589843.050781 3.21875.8125 4.636719l16.835937 31.292968c4.570313 8.5 17.765625 1.402344 13.191406-7.09375zm0 0"/></svg>