<?xml version="1.0" standalone="no"?>
<!DOCTYPE svg PUBLIC "-//W3C//DTD SVG 1.1//EN" "http://www.w3.org/Graphics/SVG/1.1/DTD/svg11.dtd">
<svg xmlns="http://www.w3.org/2000/svg">
<metadata>Generated by Fontastic.me</metadata>
<defs>
<font id="mesoco-pacs" horiz-adv-x="512">
<font-face font-family="mesoco-pacs" units-per-em="512" ascent="480" descent="-32"/>
<missing-glyph horiz-adv-x="512" />

<glyph glyph-name="arrows-alt" unicode="&#97;" d="M403 357l-101-101 101-101 41 41c6 6 12 7 20 4 8-4 11-9 11-17l0-128c0-5-1-9-5-13-4-4-8-5-13-5l-128 0c-8 0-13 3-17 11-3 7-2 14 4 20l41 41-101 101-101-101 41-41c6-6 7-13 4-20-4-8-9-11-17-11l-128 0c-5 0-9 1-13 5-4 4-5 8-5 13l0 128c0 8 3 13 11 17 7 3 14 2 20-4l41-41 101 101-101 101-41-41c-4-3-8-5-13-5-2 0-5 0-7 1-8 4-11 9-11 17l0 128c0 5 1 9 5 13 4 4 8 5 13 5l128 0c8 0 13-3 17-11 3-7 2-14-4-20l-41-41 101-101 101 101-41 41c-6 6-7 13-4 20 4 8 9 11 17 11l128 0c5 0 9-1 13-5 4-4 5-8 5-13l0-128c0-8-3-13-11-17-2-1-5-1-7-1-5 0-9 2-13 5z"/>
<glyph glyph-name="add" unicode="&#98;" d="M484 292l-192 0 0 192c0 9-12 28-36 28-24 0-36-19-36-28l0-192-192 0c-9 0-28-12-28-36 0-24 19-36 28-36l192 0 0-192c0-9 12-28 36-28 24 0 36 19 36 28l0 192 192 0c9 0 28 12 28 36 0 24-19 36-28 36z"/>
<glyph glyph-name="cursor" unicode="&#99;" d="M80 0c-2 0-4 0-7 1-5 3-9 9-9 15l0 480c0 6 4 12 10 15 6 2 13 1 17-4l352-352c5-4 6-11 4-17-3-6-9-10-15-10l-202 0-139-124c-3-3-7-4-11-4z m16 457l0-405 117 104c3 3 7 4 11 4l169 0z"/>
<glyph glyph-name="notification" unicode="&#100;" d="M468 80l-37 61c-17 28-26 61-26 94l0 53c0 68-45 125-106 143l0 38c0 24-19 43-43 43-24 0-43-19-43-43l0-38c-61-18-106-75-106-143l0-53c0-33-9-66-26-94l-37-61c-2-3-2-7 0-11 2-3 5-5 9-5l406 0c4 0 7 2 9 5 2 4 2 8 0 11z m-279-37c12-25 37-43 67-43 30 0 55 18 67 43z"/>
<glyph glyph-name="telegram" unicode="&#101;" d="M9 265l118-44 46-147c3-9 14-13 22-6l66 53c6 6 16 6 23 1l119-86c8-6 20-2 22 8l87 418c2 11-9 20-19 16l-484-187c-12-4-12-21 0-26z m156-20l231 142c4 2 8-4 5-7l-191-177c-6-6-11-14-12-23l-6-48c-1-7-10-7-12-1l-25 87c-3 10 1 21 10 27z"/>
<glyph glyph-name="verified" unicode="&#102;" d="M437 437c-48 48-113 75-181 75-68 0-133-27-181-75-48-48-75-113-75-181 0-68 27-133 75-181 48-48 113-75 181-75 68 0 133 27 181 75 48 48 75 113 75 181 0 68-27 133-75 181z m-181-407c-125 0-226 101-226 226 0 125 101 226 226 226 125 0 226-101 226-226 0-125-101-226-226-226z m122 308c-6 6-15 6-21 0l-132-132-70 69c-6 6-15 6-21 0-6-5-6-15 0-21l80-80c3-3 7-5 11-5 3 0 7 2 10 5l143 143c6 6 6 15 0 21z"/>
<glyph glyph-name="vaccine" unicode="&#103;" d="M312 168l0 13 30 29c1 2 2 4 2 6l0 16 16 0 0-16c0-2 1-4 2-6l30-29 0-13z m0-64l80 0 0-48-80 0z m0-80l0 16 80 0 0-16z m66 114l14-13 0-5-80 0 0 5 14 13c1 2 2 4 2 6l0 8 48 0 0-8c0-2 1-4 2-6z m30 30l0 13 30 29c1 2 2 4 2 6l0 16 16 0 0-16c0-2 1-4 2-6l30-29 0-13z m0-64l80 0 0-48-80 0z m0-80l0 16 80 0 0-16z m66 114l14-13 0-5-80 0 0 5 14 13c1 2 2 4 2 6l0 8 48 0 0-8c0-2 1-4 2-6z m-56 292l72 72 12-12-72-72z m-242-201l53-53-13-13-53 53z m-59-181l-21-21-69 69 21 21z m-13 35l-21 21 53 53 21-21z m125 45l-21-21-101 101 21 21z m11 59l-53 53 13 13 18-19 12 12-19 18 13 13 34-35 12 12-35 34 13 13 18-19 12 12-19 18 13 13 34-35 12 12-35 34 13 13 18-19 12 12-19 18 13 13 34-35 12 12-35 34 13 13 18-19 12 12-19 18 13 13 53-53z m176 208l-21 21 13 13 21-21z m-360-107c10 0 20 4 27 11 8 8 13 19 13 31l0 3c0 7-2 14-5 21l-35 62-34-61c-4-7-6-15-6-23l0-2c0-12 5-23 13-31 7-7 17-11 27-11z m128 80c10 0 20 4 27 11 8 8 13 19 13 31l0 3c0 7-2 14-5 21l-35 62-34-61c-4-7-6-15-6-23l0-2c0-12 5-23 13-31 7-7 17-11 27-11z"/>
<glyph glyph-name="paper" unicode="&#104;" d="M322 358l70 0-70 69z m-30-14l0 92-244 0c-9 0-17-8-17-17l0-402c0-9 8-17 17-17l336 0c9 0 17 8 17 17l0 311-92 0c-9 0-17 7-17 16z m173 168l-336 0c-9 0-17-8-17-17l0-30 209 0c5 0 10-2 14-6l89-89c4-4 6-9 6-14l0-280 35 0c9 0 17 8 17 17l0 402c0 9-8 17-17 17z"/>
<glyph glyph-name="picture" unicode="&#105;" d="M500 448c-9 9-19 13-31 13l-426 0c-12 0-22-4-30-13-9-8-13-18-13-30l0-324c0-12 4-22 13-30 8-9 18-13 30-13l426 0c12 0 22 4 31 13 8 8 12 18 12 30l0 324c0 12-4 22-12 30z m-22-354c0-3-1-5-3-6-1-2-3-3-6-3l-426 0c-3 0-5 1-6 3-2 1-3 3-3 6l0 324c0 2 1 4 3 6 1 2 3 3 6 3l426 0c3 0 5-1 6-3 2-2 3-4 3-6z m-358 196c14 0 26 5 36 15 10 10 15 22 15 36 0 15-5 27-15 37-10 10-22 14-36 14-15 0-27-4-37-14-10-10-15-22-15-37 0-14 5-26 15-36 10-10 22-15 37-15z m76-77l-42 43-86-85 0-52 376 0 0 120-111 111z"/>
<glyph glyph-name="printing-tool-copy" unicode="&#106;" d="M495 278c-12 12-26 17-42 17l-20 0 0 79c0 8-2 17-6 27-4 10-9 18-15 24l-46 46c-6 6-14 11-24 15-10 4-19 6-27 6l-207 0c-8 0-15-3-21-8-5-6-8-13-8-21l0-168-20 0c-16 0-30-5-42-17-11-12-17-26-17-42l0-128c0-2 1-5 3-7 2-2 4-3 7-3l69 0 0-49c0-8 3-15 8-21 6-6 13-8 21-8l296 0c8 0 15 2 21 8 5 6 8 13 8 21l0 49 69 0c3 0 5 1 7 3 2 2 3 5 3 7l0 128c0 16-6 30-17 42z m-101-219l-276 0 0 79 276 0z m0 197l-276 0 0 197 197 0 0-49c0-9 3-16 9-21 5-6 12-9 21-9l49 0z m73-34c-4-3-9-5-14-5-5 0-10 2-14 5-4 4-6 9-6 14 0 6 2 10 6 14 4 4 9 6 14 6 5 0 10-2 14-6 4-4 6-8 6-14 0-5-2-10-6-14z"/>
<glyph glyph-name="files" unicode="&#107;" d="M368 256l-64 0c-9 0-16-7-16-16l0-128c0-9 7-16 16-16l64 0c18 0 32 14 32 32l0 96c0 18-14 32-32 32z m0-128l-48 0 0 96 48 0z m144 96l0 32-80 0c-9 0-16-7-16-16l0-144 32 0 0 64 64 0 0 32-64 0 0 32z m-480-176l0 416c0 9 7 16 16 16l240 0 0-64c0-18 14-32 32-32l64 0 0-48 32 0 0 64c0 4-2 8-5 11l-96 96c-3 3-7 5-11 5l-256 0c-27 0-48-21-48-48l0-416c0-27 21-48 48-48l112 0 0 32-112 0c-9 0-16 7-16 16z m208 208l-64 0c-9 0-16-7-16-16l0-144 32 0 0 48 48 0c18 0 32 14 32 32l0 48c0 18-14 32-32 32z m0-80l-48 0 0 48 48 0z"/>
<glyph glyph-name="eye" unicode="&#108;" d="M256 409c-98 0-187-54-252-141-5-7-5-17 0-24 65-87 154-141 252-141 98 0 187 54 252 141 5 7 5 17 0 24-65 87-154 141-252 141z m7-260c-65-5-119 49-114 114 3 54 46 97 100 100 65 5 119-49 114-114-3-54-46-97-100-100z m-3 49c-35-2-64 27-62 62 2 29 25 52 54 54 35 2 64-27 62-62-2-29-25-52-54-54z"/>
<glyph glyph-name="edit" unicode="&#109;" d="M498 200c-8 0-14-6-14-13l0-119c0-23-18-41-40-41l-377 0c-22 0-40 18-40 41l0 349c0 23 18 41 40 41l119 0c8 0 14 6 14 13 0 8-6 14-14 14l-119 0c-37 0-67-31-67-68l0-349c0-38 30-68 67-68l377 0c37 0 67 30 67 68l0 119c0 7-6 13-13 13z m-288 71l196 196 63-63-196-196z m-32-95l70 19-51 50z m309 324c-13 13-35 13-48 0l-14-14 63-63 14 14c14 13 14 34 0 47z"/>
<glyph glyph-name="add-1" unicode="&#110;" d="M484 292l-192 0 0 192c0 9-12 28-36 28-24 0-36-19-36-28l0-192-192 0c-9 0-28-12-28-36 0-24 19-36 28-36l192 0 0-192c0-9 12-28 36-28 24 0 36 19 36 28l0 192 192 0c9 0 28 12 28 36 0 24-19 36-28 36z"/>
<glyph glyph-name="add-square-button" unicode="&#111;" d="M483 483c-20 19-43 29-71 29l-312 0c-28 0-51-10-71-29-19-20-29-43-29-71l0-312c0-28 10-51 29-71 20-19 43-29 71-29l312 0c28 0 51 10 71 29 19 20 29 43 29 71l0 312c0 28-10 51-29 71z m-28-383c0-12-4-22-12-31-9-8-19-12-31-12l-312 0c-12 0-22 4-31 12-8 9-12 19-12 31l0 312c0 12 4 22 12 31 9 8 19 12 31 12l312 0c12 0 22-4 31-12 8-9 12-19 12-31z m-71 184l-100 0 0 100c0 4-1 8-4 10-2 3-6 4-10 4l-28 0c-4 0-8-1-11-4-2-2-3-6-3-10l0-100-100 0c-4 0-8-1-10-4-3-2-4-6-4-10l0-28c0-4 1-8 4-10 2-3 6-4 10-4l100 0 0-100c0-4 1-7 3-10 3-3 7-4 11-4l28 0c4 0 8 1 10 4 3 3 4 6 4 10l0 100 100 0c4 0 7 1 10 4 3 2 4 6 4 10l0 28c0 4-1 8-4 10-3 3-6 4-10 4z"/>
<glyph glyph-name="arrow-left" unicode="&#112;" d="M440 266l-354 244c-4 2-8 3-12 1-4-3-7-7-7-11l0-488c0-4 3-9 7-11 1-1 3-1 5-1 3 0 5 1 7 2l354 244c3 2 5 6 5 10 0 4-2 8-5 10z"/>
<glyph glyph-name="fillter-gird" unicode="&#113;" d="M455 367l-392 0c-7 0-12 5-12 12l0 32c0 7 5 12 12 12l392 0c6 0 12-5 12-12l0-32c0-7-6-12-12-12z m0-130l-392 0c-7 0-12 5-12 12l0 32c0 6 5 12 12 12l392 0c6 0 12-6 12-12l0-32c0-7-6-12-12-12z m0-131l-392 0c-7 0-12 6-12 12l0 32c0 7 5 12 12 12l392 0c6 0 12-5 12-12l0-32c0-6-6-12-12-12z m-183 241l-32 0c-7 0-13 6-13 13l0 72c0 7 6 12 13 12l32 0c7 0 13-5 13-12l0-72c0-7-6-13-13-13z m149-132l-32 0c-7 0-13 5-13 12l0 72c0 7 6 13 13 13l32 0c7 0 12-6 12-13l0-72c0-7-5-12-12-12z m-291-126l-32 0c-7 0-13 6-13 13l0 71c0 7 6 13 13 13l32 0c7 0 13-6 13-13l0-71c0-7-6-13-13-13z"/>
<glyph glyph-name="puzzle" unicode="&#114;" d="M405 133c3 0 5 0 7-1l15-5 0 97-203 0 0 76-14-5c-3-1-5-2-7-2-12 0-22 10-22 22 0 11 10 21 22 21 2 0 4 0 7-1l14-5 0 97-102 0 5-15c1-2 1-4 1-7 0-11-10-21-21-21-12 0-22 10-22 21 0 3 1 5 2 7l5 15-92 0 0-300 14 5c3 1 5 1 7 1 12 0 22-9 22-21 0-12-10-21-22-21-2 0-4 0-7 1l-14 5 0-97 427 0 0 97-15-5c-2-1-4-1-7-1-11 0-21 9-21 21 0 12 10 21 21 21z m-384 272l43 0c0-23 19-42 43-42 23 0 42 19 42 42l54 0 0-48c-24 0-43-19-43-42 0-24 19-43 43-43l0-48-76 0 5-14c1-3 1-5 1-7 0-12-9-22-21-22-12 0-21 10-21 22 0 2 0 4 1 7l5 14-76 0z m196-313l-14 5 0-76-182 0 0 48c24 0 43 19 43 43 0 24-19 43-43 43l0 48 48 0c0-24 19-43 43-43 24 0 43 19 43 43l48 0 0-76 14 5c2 1 5 1 7 1 12 0 21-9 21-21 0-12-9-21-21-21-2 0-5 0-7 1z m188-23l0-48-181 0 0 48c24 0 43 19 43 43 0 24-19 43-43 43l0 48 181 0 0-48c-23 0-42-19-42-43 0-24 19-43 42-43z m86 352c2 0 5 0 7-1l14-5 0 97-224 0 0-69c-24 0-43-19-43-43 0-24 19-43 43-43l0-69 69 0c0-24 19-43 43-43 24 0 43 19 43 43l69 0 0 97-14-5c-2-1-5-1-7-1-12 0-22 9-22 21 0 12 10 21 22 21z m0-64l0-48-76 0 5-14c1-2 1-5 1-7 0-12-9-21-21-21-12 0-21 9-21 21 0 2 0 5 1 7l5 14-76 0 0 76-14-5c-2-1-5-1-7-1-12 0-21 9-21 21 0 12 9 21 21 21 2 0 5 0 7-1l14-5 0 76 182 0 0-48c-24 0-43-19-43-43 0-24 19-43 43-43z"/>
<glyph glyph-name="reset-arrows" unicode="&#115;" d="M498 456c-10 2-20-4-22-14l-14-63c-43 73-122 119-208 119-134 0-242-108-242-241 0-11 8-19 18-19 11 0 19 8 19 19 0 112 92 204 205 204 73 0 140-39 177-102l-62 14c-10 2-20-5-23-15-2-10 5-20 15-22l106-23c2 0 4 0 6 0 3 0 6 1 8 3 4 3 7 7 8 12l23 106c2 10-4 20-14 22z m-19-175c-10 0-18-9-18-19 2-55-18-107-55-147-37-40-88-63-143-65-2 0-4 0-6 0-72 0-137 37-175 97l65-17c10-3 20 3 23 13 3 10-3 20-13 23l-105 28c-5 1-10 1-14-2-5-2-8-6-9-11l-28-105c-3-10 3-20 13-23 1 0 3-1 5-1 8 0 15 6 18 14l15 59c45-69 121-112 205-112 2 0 5 0 8 0 64 2 124 29 168 77 44 47 67 108 65 173 0 10-9 18-19 18z"/>
<glyph glyph-name="history-clock-button" unicode="&#116;" d="M269 499c-90 0-169-48-210-123l-59 59 0-166 166 0-71 71c33 64 97 108 174 108 105 0 192-87 192-192 0-105-87-192-192-192-85 0-154 54-182 128l-54 0c28-102 123-179 236-179 135 0 243 110 243 243 0 133-110 243-243 243z m-39-128l0-130 121-72 20 33-102 62 0 107z"/>
<glyph glyph-name="check-log" unicode="&#117;" d="M435 435c-45 48-109 77-179 77-141 0-256-115-256-256 0-141 115-256 256-256 118 0 218 83 246 192l-67 0c-25-74-96-128-179-128-106 0-192 86-192 192 0 106 86 192 192 192 54 0 99-22 134-58l-102-102 224 0 0 224z"/>
<glyph glyph-name="clicker" unicode="&#118;" d="M421 354c-7 0-14-2-20-4-8 19-27 33-48 33-8 0-16-2-23-6-9 17-26 28-46 28-6 0-11-1-16-2l0 57c0 29-24 52-52 52-29 0-52-23-52-52l0-206-37 42c0 1-1 1-1 1-10 10-23 15-37 15 0 0 0 0 0 0-14 0-27-5-36-15-17-17-18-42-3-69 20-35 42-69 61-98 14-21 27-41 37-58 8-15 31-62 31-62 3-6 9-10 16-10l221 0c7 0 14 5 17 12 4 13 40 127 40 171l0 119c0 29-23 52-52 52z m-17-52c0 9 8 17 17 17 9 0 17-8 17-17l0-119c0-30-23-108-35-148l-197 0c-7 15-21 43-28 54-10 18-23 39-38 60-19 29-40 62-59 96-6 9-10 21-4 28 4 3 8 4 12 4 5 0 9-1 12-4l67-77c5-6 13-8 20-5 7 2 11 9 11 16l0 253c0 9 8 17 17 17 9 0 17-8 17-17l0-163c0-10 7-18 17-18 10 0 18 8 18 18l0 56c0 10 7 17 16 17 9 0 17-7 17-17l0-79c0-10 8-18 17-18 10 0 18 8 18 18l0 57c0 9 7 17 17 17 9 0 16-8 16-17l0-80c0-10 8-17 18-17 10 0 17 7 17 17l0 51z"/>
<glyph glyph-name="hourglass" unicode="&#119;" d="M461 17l-26 0 0 34-42 0 0 87c0 23-12 45-31 58l-91 60 91 60c19 13 31 35 31 58l0 87 42 0 0 34 26 0c5 0 8 4 8 8 0 5-3 9-8 9l-410 0c-5 0-8-4-8-9 0-4 3-8 8-8l26 0 0-34 42 0 0-87c0-23 12-45 31-58l91-60-91-60c-19-13-31-35-31-58l0-87-42 0 0-34-26 0c-5 0-8-4-8-8 0-5 3-9 8-9l410 0c5 0 8 4 8 9 0 4-3 8-8 8z m-301 314c-15 9-23 25-23 43l0 87 238 0 0-87c0-18-8-34-23-43l-96-65z m-23-193c0 18 8 34 23 43l96 65 96-65c15-9 23-25 23-43l0-87-238 0z m41 221c-4 3-7 9-7 15l0 19c0 4-4 8-9 8-5 0-8-4-8-8l0-19c0-12 5-23 15-29l40-27c1-1 3-1 4-1 3 0 6 1 7 4 3 4 2 9-2 12z m165-199l-40 26c-4 3-9 2-11-2-3-4-2-9 2-12l40-26c4-4 7-9 7-15l0-19c0-5 4-8 9-8 5 0 8 3 8 8l0 19c0 12-5 22-15 29z"/>
<glyph glyph-name="right-arrow" unicode="&#120;" d="M345 431c-7 7-19 7-26 0-7-7-7-19 0-26l131-131-432 0c-10 0-18-8-18-18 0-10 8-18 18-18l432 0-131-131c-7-7-7-19 0-26 7-7 19-7 26 0l162 162c7 7 7 19 0 26z"/>
<glyph glyph-name="save" unicode="&#121;" d="M287 460l63 0 0-105-63 0z m130 52l-412 0 0-512 502 0 0 422z m-307-21l271 0 0-167-271 0z m303-470l-324 0 0 219 324 0z m-272 157l73 0c6 0 11 4 11 10 0 6-5 11-11 11l-73 0c-6 0-10-5-10-11 0-6 4-10 10-10z m0-42l105 0c5 0 10 5 10 10 0 6-5 11-10 11l-105 0c-6 0-10-5-10-11 0-5 4-10 10-10z m136 0c3 0 5 1 7 3 2 2 3 5 3 7 0 3-1 6-3 8-4 4-11 4-14 0-2-2-4-5-4-8 0-3 2-5 3-7 2-2 5-3 8-3z"/>
<glyph glyph-name="information4-01" unicode="&#122;" d="M255 510c-140 0-254-114-254-255 0-140 114-254 254-254 141 0 255 114 255 254 0 141-114 255-255 255z m0-468c-118 0-213 95-213 213 0 119 95 214 213 214 118 0 214-95 214-214 0-118-96-213-214-213z m28 302c0-17-14-31-31-31-17 0-30 14-30 31 0 17 13 30 30 30 17 0 31-13 31-30z m0-84c0-6-6-12-12-12l-55 0c-7 0-12 6-12 12l0 23c0 7 5 12 12 12l55 0c6 0 12-5 12-12z m0-121c0-6-6-12-12-12l-31 0c-7 0-12 6-12 12l0 144c0 7 5 12 12 12l31 0c6 0 12-5 12-12z"/>
<glyph glyph-name="clock" unicode="&#65;" d="M492 356c-27 63-73 108-137 135-31 14-65 21-99 21-35 0-68-7-100-21-63-27-109-72-136-135-13-32-20-65-20-100 0-34 7-68 20-99 27-63 73-109 136-136 32-14 65-21 100-21 34 0 68 7 99 21 64 27 110 73 137 136 13 31 20 65 20 99 0 35-7 68-20 100z m-41-213c-20-34-48-62-83-82-34-20-72-30-112-30-31 0-60 6-88 18-27 12-51 28-71 48-20 20-36 44-48 72-12 27-18 57-18 87 0 41 10 78 30 113 20 34 48 62 82 82 34 20 72 30 113 30 40 0 78-10 112-30 35-20 63-48 83-82 20-35 30-72 30-113 0-40-10-78-30-113z m-179 116l0 145c0 8-8 15-16 15-9 0-16-7-16-15l0-148c0 0 1-1 1-2-1-5 1-9 4-13l84-83c5-6 16-6 21 0 7 6 6 16 0 22z"/>
<glyph glyph-name="clock-1" unicode="&#66;" d="M256 512c-141 0-256-115-256-256 0-141 115-256 256-256 141 0 256 115 256 256 0 141-115 256-256 256z m111-305l-109 0c0 0-1 0-1 0 0 0-1 0-1 0-10 0-18 8-18 18l0 181c0 10 8 17 18 17 10 0 18-7 18-17l0-163 93 0c9 0 17-8 17-18 0-10-8-18-17-18z"/>
<glyph glyph-name="information5-01" unicode="&#67;" d="M256 511c-141 0-255-114-255-255 0-141 114-255 255-255 141 0 255 114 255 255 0 141-114 255-255 255z m28-232l0-121c0-7-5-12-12-12l-31 0c-6 0-12 5-12 12l0 109-12 0c-6 0-12 5-12 12l0 23c0 7 6 12 12 12l55 0c7 0 12-5 12-12z m-30 53c-17 0-31 14-31 30 0 17 14 31 31 31 17 0 30-14 30-31 0-16-13-30-30-30z"/>
<glyph glyph-name="save-file-option" unicode="&#68;" d="M505 371c-5 10-10 19-16 25l-93 93c-7 7-15 12-26 16-10 5-20 7-29 7l-309 0c-9 0-16-3-23-9-6-7-9-14-9-23l0-447c0-9 3-17 9-23 7-6 14-9 23-9l447 0c9 0 17 3 23 9 6 6 9 14 9 23l0 309c0 8-2 18-6 29z m-292 88c0 3 1 5 3 7 2 2 5 3 8 3l64 0c3 0 5-1 7-3 2-2 3-4 3-7l0-107c0-3-1-5-3-7-2-2-4-3-7-3l-64 0c-3 0-6 1-8 3-2 2-3 4-3 7z m171-416l-256 0 0 128 256 0z m85 0l-43 0 0 139c0 9-3 16-9 22-6 7-14 10-23 10l-277 0c-9 0-16-3-22-10-7-6-10-13-10-22l0-139-42 0 0 426 42 0 0-138c0-9 3-17 10-23 6-6 13-9 22-9l192 0c9 0 16 3 23 9 6 6 9 14 9 23l0 138c3 0 8-1 13-3 5-2 9-4 11-7l94-93c2-2 4-6 7-12 2-5 3-9 3-12z"/>
<glyph glyph-name="screem" unicode="&#69;" d="M170 22l-11 0c-44 0-80 40-80 88l0 292c0 48 36 88 80 88l11 0c44 0 8-1 80-1l0-466c-46 0-36-1-80-1z m-1 12l-10 0c-38 0-69 38-69 83l0 278c0 45 31 83 69 83l10 0c38 0 6-1 69-1l0-443c-40 0-31 0-69 0z m58 350c0 32-24 58-53 58-30 0-53-26-53-58 0-32 23-57 53-57 29 0 53 25 53 57z m128 106l11 0c44 0 80-40 80-88l0-292c0-48-36-88-80-88l-11 0c-44 0-7 1-80 1l0 466c46 0 36 1 80 1z m59-353c0 31-24 57-53 57-30 0-54-26-54-57 0-32 24-58 54-58 29 0 53 26 53 58z"/>
<glyph glyph-name="list" unicode="&#70;" d="M486 70l-342 0c-14 0-25 12-25 26 0 14 11 25 25 25l342 0c15 0 26-11 26-25 0-14-11-26-26-26z m0 160l-342 0c-14 0-25 12-25 26 0 14 11 26 25 26l342 0c15 0 26-12 26-26 0-14-11-26-26-26z m0 161l-342 0c-14 0-25 11-25 25 0 14 11 26 25 26l342 0c15 0 26-12 26-26 0-14-11-25-26-25z m-417 23c0-19-16-34-35-34-19 0-34 15-34 34 0 19 15 35 34 35 19 0 35-16 35-35z m0-158c0-19-16-34-35-34-19 0-34 15-34 34 0 19 15 34 34 34 19 0 35-15 35-34z m0-158c0-19-16-35-35-35-19 0-34 16-34 35 0 19 15 34 34 34 19 0 35-15 35-34z"/>
<glyph glyph-name="comments" unicode="&#71;" d="M302 184c31 13 55 31 73 54 18 22 27 47 27 73 0 26-9 51-27 73-18 23-42 41-73 54-31 13-65 19-101 19-36 0-70-6-101-19-31-13-55-31-73-54-18-22-27-47-27-73 0-23 7-44 20-64 14-20 32-37 56-50-2-5-4-9-6-13-2-4-4-8-7-11-3-4-5-6-6-8-2-2-4-5-8-9-3-3-6-6-6-7 0 0-1 0-2-1 0-1-1-2-1-2 0 1 0 0-1-1-1-1-1-2-1-2l-1-1c0-1 0-1 0-2 0 0 0-1 0-2 0 0 0-1 0-1 0-3 1-5 3-6 2-2 4-3 6-3l1 0c9 2 18 3 24 5 30 7 56 20 80 36 17-3 34-4 50-4 36 0 70 6 101 19z m-160 24l-12-9c-6-3-12-7-18-11l10 24-28 16c-18 11-32 23-42 38-10 14-15 29-15 45 0 19 7 38 22 55 15 16 35 30 60 40 26 10 53 15 82 15 29 0 56-5 82-15 25-10 45-24 60-40 15-17 22-36 22-55 0-19-7-38-22-55-15-16-35-30-60-40-26-10-53-15-82-15-14 0-29 2-44 4z m349-34c14 20 21 41 21 64 0 23-8 45-22 66-14 20-33 37-58 50 4-14 7-28 7-43 0-25-7-50-20-72-12-23-31-44-54-61-22-16-48-28-76-37-28-8-57-13-88-13-6 0-14 1-25 1 38-25 83-37 135-37 16 0 33 1 50 4 23-16 50-29 79-36 7-2 15-3 25-5 2 0 4 1 6 2 2 2 3 4 4 6 0 2 0 2 0 2 0 0 0 1 0 2 0 1-1 2-1 2l0 1c-1 1-1 1-1 2-1 1-1 1-1 1-1 1-1 1-2 2 0 0-1 1-1 1-1 1-3 4-6 7-4 4-6 7-8 9-1 2-4 4-6 8-3 3-5 7-7 11-2 4-4 8-6 12 23 14 42 31 55 51z"/>
<glyph glyph-name="compare" unicode="&#72;" d="M453 367l-396 0c-32 0-57 25-57 57 0 31 25 57 57 57l396 0c31 0 56-26 56-57 0-32-25-57-56-57z m0-167l-396 0c-32 0-57 26-57 57 0 32 25 57 57 57l396 0c31 0 56-25 56-57 0-31-25-57-56-57z m0-166l-396 0c-32 0-57 25-57 57 0 31 25 57 57 57l396 0c31 0 56-26 56-57 0-32-25-57-56-57z"/>
<glyph glyph-name="login-square-arrow-button-outline" unicode="&#73;" d="M277 156c-6-6-6-16 0-22 7-7 17-7 23 0l110 110c4 3 5 8 5 12 0 4-1 9-5 12l-110 111c-6 6-16 6-23 0-6-7-6-17 0-23l84-84-345 0c-9 0-16-7-16-16 0-9 7-16 16-16l345 0z m171 324l-320 0c-35 0-64-29-64-64l0-64 32 0 0 64c0 18 14 32 32 32l320 0c18 0 32-14 32-32l0-320c0-18-14-32-32-32l-320 0c-18 0-32 14-32 32l0 64-32 0 0-64c0-35 29-64 64-64l320 0c35 0 64 29 64 64l0 320c0 35-29 64-64 64z"/>
<glyph glyph-name="selection" unicode="&#74;" d="M512 426l0 76c0 6-5 10-10 10l-76 0c-5 0-10-4-10-10l0-28 0 0c0 0-1 0-1 0 0 0 0 0 0 0l-1 0c0 0-1 0-1 0 0 0 0 0 0 0l-1 0c0 0-1 0-1 0 0 0 0 0 0 0l-1 0c0 0-1 0-1 0 0 0 0 0 0 0l-1 0c0 0-1 0-1 0 0 0 0 0 0 0l-1 0c-1 0-1 0-1 0 0 0 0 0 0 0l-1 0c-1 0-1 0-1 0 0 0 0 0 0 0l-1 0c-1 0-1 0-1 0 0 0 0 0 0 0l-1 0c-1 0-1 0-1 0 0 0 0 0 0 0l-1 0c-1 0-1 0-1 0 0 0 0 0 0 0l-1 0c-1 0-1 0-1 0 0 0 0 0 0 0l-1 0c-1 0-1 0-1 0 0 0 0 0 0 0l-1 0c-1 0-1 0-1 0 0 0 0 0 0 0l-1 0c-1 0-1 0-1 0 0 0 0 0 0 0l-1 0c-1 0-1 0-1 0 0 0 0 0 0 0l-1 0c-1 0-1 0-1 0 0 0 0 0 0 0l-1 0c-1 0-1 0-1 0 0 0 0 0 0 0l-1 0c-1 0-1 0-1 0 0 0 0 0 0 0l-1 0c-1 0-1 0-1 0 0 0 0 0 0 0l-1 0c-1 0-1 0-1 0 0 0 0 0 0 0l-1 0c-1 0-1 0-1 0 0 0 0 0 0 0l-1 0c-1 0-1 0-1 0 0 0 0 0 0 0l-1 0c-1 0-1 0-1 0 0 0 0 0 0 0l-1 0c-1 0-1 0-1 0 0 0 0 0 0 0l-1 0c-1 0-1 0-1 0 0 0 0 0 0 0l-1 0c-1 0-1 0-1 0 0 0 0 0 0 0l-1 0c-1 0-1 0-1 0 0 0 0 0 0 0l-1 0c-1 0-1 0-1 0 0 0 0 0 0 0l-1 0c-1 0-1 0-1 0 0 0 0 0 0 0l-1 0c-1 0-1 0-1 0 0 0 0 0 0 0l-1 0c-1 0-1 0-1 0 0 0 0 0 0 0l-1 0c-1 0-1 0-1 0 0 0 0 0 0 0l-1 0c-1 0-1 0-1 0 0 0 0 0-1 0l-1 0c0 0 0 0 0 0 0 0 0 0-1 0l-1 0c0 0 0 0 0 0 0 0 0 0-1 0l-1 0c0 0 0 0 0 0 0 0 0 0-1 0l-1 0c0 0 0 0 0 0 0 0 0 0-1 0l-1 0c0 0 0 0 0 0 0 0 0 0-1 0l-1 0c0 0 0 0 0 0 0 0 0 0-1 0l-1 0c0 0 0 0 0 0 0 0 0 0-1 0l-1 0c0 0 0 0 0 0 0 0 0 0-1 0l-1 0c0 0 0 0 0 0 0 0 0 0-1 0l-1 0c0 0 0 0 0 0 0 0 0 0-1 0l-1 0c0 0 0 0 0 0 0 0 0 0-1 0l-1 0c0 0 0 0 0 0 0 0 0 0-1 0l-1 0c0 0 0 0 0 0 0 0 0 0-1 0l-1 0c0 0 0 0 0 0 0 0 0 0-1 0l-1 0c0 0 0 0 0 0 0 0 0 0-1 0l-1 0c0 0 0 0 0 0 0 0 0 0-1 0l-1 0c0 0 0 0 0 0 0 0 0 0-1 0l-1 0c0 0 0 0 0 0 0 0 0 0-1 0l-1 0c0 0 0 0 0 0 0 0 0 0-1 0l-1 0c0 0 0 0 0 0 0 0 0 0-1 0l-1 0c0 0 0 0 0 0 0 0 0 0-1 0l-1 0c0 0 0 0 0 0 0 0 0 0-1 0l-1 0c0 0 0 0 0 0 0 0 0 0-1 0l0 0 0 28c0 6-5 10-10 10l-76 0c-5 0-10-4-10-10l0-28 0 0c-1 0-1 0-1 0 0 0 0 0 0 0l-1 0c-1 0-1 0-1 0 0 0 0 0 0 0l-1 0c-1 0-1 0-1 0 0 0 0 0 0 0l-1 0c-1 0-1 0-1 0 0 0 0 0 0 0l-1 0c-1 0-1 0-1 0 0 0 0 0 0 0l-1 0c-1 0-1 0-1 0 0 0 0 0 0 0l-1 0c-1 0-1 0-1 0 0 0 0 0 0 0l-1 0c-1 0-1 0-1 0 0 0 0 0 0 0l-1 0c-1 0-1 0-1 0 0 0 0 0 0 0l-1 0c-1 0-1 0-1 0 0 0 0 0 0 0l-1 0c-1 0-1 0-1 0 0 0 0 0 0 0l-1 0c-1 0-1 0-1 0 0 0 0 0 0 0l-1 0c-1 0-1 0-1 0 0 0 0 0 0 0l-1 0c-1 0-1 0-1 0 0 0 0 0 0 0l-1 0c-1 0-1 0-1 0 0 0 0 0 0 0l-1 0c-1 0-1 0-1 0 0 0 0 0 0 0l-1 0c-1 0-1 0-1 0 0 0 0 0 0 0l-1 0c-1 0-1 0-1 0 0 0 0 0 0 0l-1 0c-1 0-1 0-1 0 0 0 0 0-1 0l-1 0c0 0 0 0 0 0 0 0 0 0-1 0l-1 0c0 0 0 0 0 0 0 0 0 0-1 0l-1 0c0 0 0 0 0 0 0 0 0 0-1 0l-1 0c0 0 0 0 0 0 0 0 0 0-1 0l-1 0c0 0 0 0 0 0 0 0 0 0-1 0l-1 0c0 0 0 0 0 0 0 0 0 0-1 0l-1 0c0 0 0 0 0 0 0 0 0 0-1 0l-1 0c0 0 0 0 0 0 0 0 0 0-1 0l-1 0c0 0 0 0 0 0 0 0 0 0-1 0l-1 0c0 0 0 0 0 0 0 0 0 0-1 0l-1 0c0 0 0 0 0 0 0 0 0 0-1 0l-1 0c0 0 0 0 0 0 0 0 0 0-1 0l-1 0c0 0 0 0 0 0 0 0 0 0-1 0l-1 0c0 0 0 0 0 0 0 0 0 0-1 0l-1 0c0 0 0 0 0 0 0 0 0 0-1 0l-1 0c0 0 0 0 0 0 0 0 0 0-1 0l-1 0c0 0 0 0 0 0 0 0 0 0-1 0l-1 0c0 0 0 0 0 0 0 0 0 0-1 0l-1 0c0 0 0 0 0 0 0 0 0 0-1 0l-1 0c0 0 0 0 0 0 0 0 0 0-1 0l-1 0c0 0 0 0 0 0 0 0 0 0-1 0l-1 0c0 0 0 0 0 0 0 0 0 0-1 0l-1 0c0 0 0 0 0 0 0 0 0 0-1 0l-1 0c0 0 0 0 0 0 0 0 0 0-1 0l-1 0c0 0 0 0 0 0 0 0 0 0-1 0l-1 0c0 0 0 0 0 0 0 0 0 0-1 0l-1 0c0 0 0 0 0 0 0 0-1 0-1 0l-1 0c0 0 0 0 0 0 0 0-1 0-1 0l-1 0c0 0 0 0 0 0 0 0-1 0-1 0l-1 0c0 0 0 0 0 0 0 0-1 0-1 0l-1 0c0 0 0 0 0 0 0 0-1 0-1 0l-1 0c0 0 0 0 0 0 0 0-1 0-1 0l-1 0c0 0 0 0 0 0 0 0-1 0-1 0l-1 0c0 0 0 0 0 0 0 0-1 0-1 0l-1 0c0 0 0 0 0 0 0 0-1 0-1 0l-1 0c0 0 0 0 0 0 0 0-1 0-1 0l-1 0c0 0 0 0 0 0 0 0-1 0-1 0l0 0 0 28c0 6-5 10-10 10l-76 0c-6 0-10-4-10-10l0-76c0-5 4-10 10-10l28 0 0 0c0 0 0-1 0-1 0 0 0 0 0 0l0-1c0 0 0-1 0-1 0 0 0 0 0 0l0-1c0 0 0-1 0-1 0 0 0 0 0 0l0-1c0 0 0-1 0-1 0 0 0 0 0 0l0-1c0 0 0-1 0-1 0 0 0 0 0 0l0-1c0 0 0-1 0-1 0 0 0 0 0 0l0-1c0 0 0-1 0-1 0 0 0 0 0 0l0-1c0 0 0-1 0-1 0 0 0 0 0 0l0-1c0 0 0-1 0-1 0 0 0 0 0 0l0-1c0 0 0-1 0-1 0 0 0 0 0 0l0-1c0 0 0-1 0-1 0 0 0 0 0 0l0-1c0 0 0-1 0-1 0 0 0 0 0 0l0-1c0 0 0-1 0-1 0 0 0 0 0 0l0-1c0 0 0-1 0-1 0 0 0 0 0 0l0-1c0-1 0-1 0-1 0 0 0 0 0 0l0-1c0-1 0-1 0-1 0 0 0 0 0 0l0-1c0-1 0-1 0-1 0 0 0 0 0 0l0-1c0-1 0-1 0-1 0 0 0 0 0 0l0-1c0-1 0-1 0-1 0 0 0 0 0 0l0-1c0-1 0-1 0-1 0 0 0 0 0 0l0-1c0-1 0-1 0-1 0 0 0 0 0 0l0-1c0-1 0-1 0-1 0 0 0 0 0 0l0-1c0-1 0-1 0-1 0 0 0 0 0 0l0-1c0-1 0-1 0-1 0 0 0 0 0 0l0-1c0-1 0-1 0-1 0 0 0 0 0 0l0-1c0-1 0-1 0-1 0 0 0 0 0 0l0-1c0-1 0-1 0-1 0 0 0 0 0 0l0-1c0-1 0-1 0-1 0 0 0 0 0 0l0-1c0-1 0-1 0-1 0 0 0 0 0 0l0-1c0-1 0-1 0-1 0 0 0 0 0 0l0-1c0-1 0-1 0-1 0 0 0 0 0 0l0-1c0-1 0-1 0-1 0 0 0 0 0 0l0-1c0-1 0-1 0-1 0 0 0 0 0 0l0-1c0-1 0-1 0-1 0 0 0 0 0 0l0-2c0 0 0 0 0 0 0 0 0 0 0-1l0-1c0 0 0 0 0 0 0 0 0 0 0-1l0-1c0 0 0 0 0 0 0 0 0 0 0-1l0-1c0 0 0 0 0 0 0 0 0 0 0-1l0-1c0 0 0 0 0 0 0 0 0 0 0-1l0-1c0 0 0 0 0 0 0 0 0 0 0-1l0-1c0 0 0 0 0 0 0 0 0 0 0-1l0-1c0 0 0 0 0 0 0 0 0 0 0-1l0-1c0 0 0 0 0 0 0 0 0 0 0-1l0-1c0 0 0 0 0 0 0 0 0 0 0-1l0-1c0 0 0 0 0 0 0 0 0 0 0-1l0-1c0 0 0 0 0 0 0 0 0 0 0-1l0-1c0 0 0 0 0 0 0 0 0 0 0-1l0-1c0 0 0 0 0 0 0 0 0 0 0-1l0-1c0 0 0 0 0 0 0 0 0 0 0-1l0-1c0 0 0 0 0 0 0 0 0 0 0-1l0-1c0 0 0 0 0 0 0 0 0 0 0-1l0-1c0 0 0 0 0 0 0 0 0 0 0-1l0-1c0 0 0 0 0 0 0 0 0 0 0-1l0-1c0 0 0 0 0 0 0 0 0 0 0-1l0-1c0 0 0 0 0 0 0 0 0-1 0-1l0-1c0 0 0 0 0 0 0 0 0-1 0-1l0 0-28 0c-6 0-10-5-10-10l0-76c0-5 4-10 10-10l28 0 0 0c0-1 0-1 0-1 0 0 0 0 0 0l0-1c0-1 0-1 0-1 0 0 0 0 0 0l0-1c0-1 0-1 0-1 0 0 0 0 0 0l0-1c0-1 0-1 0-1 0 0 0 0 0 0l0-1c0-1 0-1 0-1 0 0 0 0 0 0l0-1c0-1 0-1 0-1 0 0 0 0 0 0l0-1c0-1 0-1 0-1 0 0 0 0 0 0l0-2c0 0 0 0 0 0 0 0 0 0 0-1l0-1c0 0 0 0 0 0 0 0 0 0 0-1l0-1c0 0 0 0 0 0 0 0 0 0 0-1l0-1c0 0 0 0 0 0 0 0 0 0 0-1l0-1c0 0 0 0 0 0 0 0 0 0 0-1l0-1c0 0 0 0 0 0 0 0 0 0 0-1l0-1c0 0 0 0 0 0 0 0 0 0 0-1l0-1c0 0 0 0 0 0 0 0 0 0 0-1l0-1c0 0 0 0 0 0 0 0 0 0 0-1l0-1c0 0 0 0 0 0 0 0 0 0 0-1l0-1c0 0 0 0 0 0 0 0 0 0 0-1l0-1c0 0 0 0 0 0 0 0 0 0 0-1l0-1c0 0 0 0 0 0 0 0 0 0 0-1l0-1c0 0 0 0 0 0 0 0 0 0 0-1l0-1c0 0 0 0 0 0 0 0 0 0 0-1l0-1c0 0 0 0 0 0 0 0 0 0 0-1l0-1c0 0 0 0 0 0 0 0 0 0 0-1l0-1c0 0 0 0 0 0 0 0 0 0 0-1l0-1c0 0 0 0 0 0 0 0 0 0 0-1l0-1c0 0 0 0 0 0 0 0 0-1 0-1l0-1c0 0 0 0 0 0 0 0 0-1 0-1l0-1c0 0 0 0 0 0 0 0 0-1 0-1l0-1c0 0 0 0 0 0 0 0 0-1 0-1l0-1c0 0 0 0 0 0 0 0 0-1 0-1l0-1c0 0 0 0 0 0 0 0 0-1 0-1l0-1c0 0 0 0 0 0 0 0 0-1 0-1l0-1c0 0 0 0 0 0 0 0 0-1 0-1l0-1c0 0 0 0 0 0 0 0 0-1 0-1l0-1c0 0 0 0 0 0 0 0 0-1 0-1l0-1c0 0 0 0 0 0 0 0 0-1 0-1l0-1c0 0 0 0 0 0 0 0 0-1 0-1l0-1c0 0 0 0 0 0 0 0 0-1 0-1l0-1c0 0 0 0 0 0 0 0 0-1 0-1l0-1c0 0 0 0 0 0 0 0 0-1 0-1l0-1c0 0 0 0 0 0 0 0 0-1 0-1l0-1c0 0 0 0 0 0 0 0 0-1 0-1l0-1c0 0 0 0 0 0 0 0 0-1 0-1l0-1c0 0 0 0 0 0 0 0 0-1 0-1l0-1c0 0 0 0 0 0 0 0 0-1 0-1l0-1c0 0 0 0 0 0 0-1 0-1 0-1l0-1c0 0 0 0 0 0 0-1 0-1 0-1l0-1c0 0 0 0 0 0 0-1 0-1 0-1l0-1c0 0 0 0 0 0 0-1 0-1 0-1l0-1c0 0 0 0 0 0 0-1 0-1 0-1l0-1c0 0 0 0 0 0 0-1 0-1 0-1l0-1c0 0 0 0 0 0 0-1 0-1 0-1l0-1c0 0 0 0 0 0 0-1 0-1 0-1l0-1c0 0 0 0 0 0 0-1 0-1 0-1l0-1c0 0 0 0 0 0 0-1 0-1 0-1l0 0-28 0c-6 0-10-5-10-10l0-76c0-5 4-10 10-10l75 0c6 0 10 5 10 10l0 28 1 0c0 0 0 0 1 0 0 0 0 0 0 0l1 0c0 0 0 0 1 0 0 0 0 0 0 0l1 0c0 0 0 0 1 0 0 0 0 0 0 0l1 0c0 0 0 0 1 0 0 0 0 0 0 0l1 0c0 0 0 0 1 0 0 0 0 0 0 0l1 0c0 0 0 0 1 0 0 0 0 0 0 0l1 0c0 0 0 0 1 0 0 0 0 0 0 0l1 0c0 0 0 0 1 0 0 0 0 0 0 0l1 0c0 0 0 0 1 0 0 0 0 0 0 0l1 0c0 0 0 0 1 0 0 0 0 0 0 0l1 0c0 0 0 0 1 0 0 0 0 0 0 0l1 0c0 0 0 0 1 0 0 0 0 0 0 0l1 0c0 0 0 0 1 0 0 0 0 0 0 0l1 0c0 0 0 0 1 0 0 0 0 0 0 0l1 0c0 0 0 0 1 0 0 0 0 0 0 0l1 0c0 0 0 0 1 0 0 0 0 0 0 0l1 0c0 0 1 0 1 0 0 0 0 0 0 0l1 0c0 0 1 0 1 0 0 0 0 0 0 0l1 0c0 0 1 0 1 0 0 0 0 0 0 0l1 0c0 0 1 0 1 0 0 0 0 0 0 0l1 0c0 0 1 0 1 0 0 0 0 0 0 0l1 0c0 0 1 0 1 0 0 0 0 0 0 0l1 0c0 0 1 0 1 0 0 0 0 0 0 0l1 0c0 0 1 0 1 0 0 0 0 0 0 0l1 0c0 0 1 0 1 0 0 0 0 0 0 0l1 0c0 0 1 0 1 0 0 0 0 0 0 0l1 0c0 0 1 0 1 0 0 0 0 0 0 0l1 0c0 0 1 0 1 0 0 0 0 0 0 0l1 0c0 0 1 0 1 0 0 0 0 0 0 0l1 0c0 0 1 0 1 0 0 0 0 0 0 0l1 0c0 0 1 0 1 0 0 0 0 0 0 0l1 0c0 0 1 0 1 0 0 0 0 0 0 0l1 0c0 0 1 0 1 0 0 0 0 0 0 0l1 0c0 0 1 0 1 0 0 0 0 0 0 0l1 0c0 0 1 0 1 0 0 0 0 0 0 0l1 0c1 0 1 0 1 0 0 0 0 0 0 0l1 0c1 0 1 0 1 0 0 0 0 0 0 0l1 0c1 0 1 0 1 0 0 0 0 0 0 0l1 0c1 0 1 0 1 0 0 0 0 0 0 0l1 0c1 0 1 0 1 0 0 0 0 0 0 0l1 0c1 0 1 0 1 0 0 0 0 0 0 0l1 0c1 0 1 0 1 0 0 0 0 0 0 0l1 0c1 0 1 0 1 0 0 0 0 0 0 0l1 0c1 0 1 0 1 0 0 0 0 0 0 0l1 0c1 0 1 0 1 0 0 0 0 0 0 0l1 0c1 0 1 0 1 0 0 0 0 0 0 0l1 0c1 0 1 0 1 0 0 0 0 0 0 0l1 0c1 0 1 0 1 0 0 0 0 0 0 0l1 0c1 0 1 0 1 0 0 0 0 0 0 0l1 0c1 0 1 0 1 0 0 0 0 0 0 0l1 0c1 0 1 0 1 0 0 0 0 0 0 0l1 0c1 0 1 0 1 0 0 0 0 0 0 0l1 0c1 0 1 0 1 0 0 0 0 0 0 0l2 0c0 0 0 0 0 0 0 0 0 0 1 0l1 0c0 0 0 0 0 0 0 0 0 0 1 0l1 0c0 0 0 0 0 0 0 0 0 0 1 0l0 0 0-28c0-6 5-10 10-10l76 0c5 0 10 4 10 10l0 28 0 0c0 0 1 0 1 0 0 0 0 0 0 0l1 0c0 0 1 0 1 0 0 0 0 0 0 0l1 0c0 0 1 0 1 0 0 0 0 0 0 0l1 0c0 0 1 0 1 0 0 0 0 0 0 0l1 0c1 0 1 0 1 0 0 0 0 0 0 0l1 0c1 0 1 0 1 0 0 0 0 0 0 0l1 0c1 0 1 0 1 0 0 0 0 0 0 0l1 0c1 0 1 0 1 0 0 0 0 0 0 0l1 0c1 0 1 0 1 0 0 0 0 0 0 0l1 0c1 0 1 0 1 0 0 0 0 0 0 0l1 0c1 0 1 0 1 0 0 0 0 0 0 0l1 0c1 0 1 0 1 0 0 0 0 0 0 0l1 0c1 0 1 0 1 0 0 0 0 0 0 0l1 0c1 0 1 0 1 0 0 0 0 0 0 0l1 0c1 0 1 0 1 0 0 0 0 0 0 0l1 0c1 0 1 0 1 0 0 0 0 0 0 0l1 0c1 0 1 0 1 0 0 0 0 0 0 0l1 0c1 0 1 0 1 0 0 0 0 0 0 0l1 0c1 0 1 0 1 0 0 0 0 0 0 0l1 0c1 0 1 0 1 0 0 0 0 0 0 0l1 0c1 0 1 0 1 0 0 0 0 0 0 0l1 0c1 0 1 0 1 0 0 0 0 0 0 0l2 0c0 0 0 0 0 0 0 0 0 0 1 0l1 0c0 0 0 0 0 0 0 0 0 0 1 0l1 0c0 0 0 0 0 0 0 0 0 0 1 0l1 0c0 0 0 0 0 0 0 0 0 0 1 0l1 0c0 0 0 0 0 0 0 0 0 0 1 0l1 0c0 0 0 0 0 0 0 0 0 0 1 0l1 0c0 0 0 0 0 0 0 0 0 0 1 0l1 0c0 0 0 0 0 0 0 0 0 0 1 0l1 0c0 0 0 0 0 0 0 0 0 0 1 0l1 0c0 0 0 0 0 0 0 0 0 0 1 0l1 0c0 0 0 0 0 0 0 0 0 0 1 0l1 0c0 0 0 0 0 0 0 0 0 0 1 0l1 0c0 0 0 0 0 0 0 0 0 0 1 0l1 0c0 0 0 0 0 0 0 0 0 0 1 0l1 0c0 0 0 0 0 0 0 0 0 0 1 0l1 0c0 0 0 0 0 0 0 0 0 0 1 0l1 0c0 0 0 0 0 0 0 0 0 0 1 0l1 0c0 0 0 0 0 0 0 0 0 0 1 0l1 0c0 0 0 0 0 0 0 0 1 0 1 0l1 0c0 0 0 0 0 0 0 0 1 0 1 0l1 0c0 0 0 0 0 0 0 0 1 0 1 0l1 0c0 0 0 0 0 0 0 0 1 0 1 0l1 0c0 0 0 0 0 0 0 0 1 0 1 0l1 0c0 0 0 0 0 0 0 0 1 0 1 0l1 0c0 0 0 0 0 0 0 0 1 0 1 0l1 0c0 0 0 0 0 0 0 0 1 0 1 0l1 0c0 0 0 0 0 0 0 0 1 0 1 0l1 0c0 0 0 0 0 0 0 0 1 0 1 0l1 0c0 0 0 0 0 0 0 0 1 0 1 0l1 0c0 0 0 0 0 0 0 0 1 0 1 0l1 0c0 0 0 0 0 0 0 0 1 0 1 0l1 0c0 0 0 0 0 0 0 0 1 0 1 0l1 0c0 0 0 0 0 0 0 0 1 0 1 0l1 0c0 0 0 0 0 0 0 0 1 0 1 0l0 0 0-28c0-5 5-10 10-10l76 0c5 0 10 5 10 10l0 76c0 5-5 10-10 10l-28 0 0 0c0 0 0 0 0 1 0 0 0 0 0 0l0 1c0 0 0 0 0 1 0 0 0 0 0 0l0 1c0 0 0 0 0 1 0 0 0 0 0 0l0 1c0 0 0 0 0 1 0 0 0 0 0 0l0 1c0 0 0 0 0 1 0 0 0 0 0 0l0 1c0 0 0 0 0 1 0 0 0 0 0 0l0 1c0 0 0 0 0 1 0 0 0 0 0 0l0 1c0 0 0 0 0 1 0 0 0 0 0 0l0 1c0 0 0 1 0 1 0 0 0 0 0 0l0 1c0 0 0 1 0 1 0 0 0 0 0 0l0 1c0 0 0 1 0 1 0 0 0 0 0 0l0 1c0 0 0 1 0 1 0 0 0 0 0 0l0 1c0 0 0 1 0 1 0 0 0 0 0 0l0 1c0 0 0 1 0 1 0 0 0 0 0 0l0 1c0 0 0 1 0 1 0 0 0 0 0 0l0 1c0 0 0 1 0 1 0 0 0 0 0 0l0 1c0 0 0 1 0 1 0 0 0 0 0 0l0 1c0 0 0 1 0 1 0 0 0 0 0 0l0 1c0 0 0 1 0 1 0 0 0 0 0 0l0 1c0 0 0 1 0 1 0 0 0 0 0 0l0 1c0 0 0 1 0 1 0 0 0 0 0 0l0 1c0 0 0 1 0 1 0 0 0 0 0 0l0 1c0 0 0 1 0 1 0 0 0 0 0 0l0 1c0 0 0 1 0 1 0 0 0 0 0 0l0 1c0 0 0 1 0 1 0 0 0 0 0 0l0 1c0 0 0 1 0 1 0 0 0 0 0 0l0 1c0 0 0 1 0 1 0 0 0 0 0 0l0 1c0 1 0 1 0 1 0 0 0 0 0 0l0 1c0 1 0 1 0 1 0 0 0 0 0 0l0 1c0 1 0 1 0 1 0 0 0 0 0 0l0 1c0 1 0 1 0 1 0 0 0 0 0 0l0 1c0 1 0 1 0 1 0 0 0 0 0 0l0 1c0 1 0 1 0 1 0 0 0 0 0 0l0 1c0 1 0 1 0 1 0 0 0 0 0 0l0 1c0 1 0 1 0 1 0 0 0 0 0 0l0 1c0 1 0 1 0 1 0 0 0 0 0 0l0 1c0 1 0 1 0 1 0 0 0 0 0 0l0 1c0 1 0 1 0 1 0 0 0 0 0 0l0 1c0 1 0 1 0 1 0 0 0 0 0 0l0 1c0 1 0 1 0 1 0 0 0 0 0 0l0 1c0 1 0 1 0 1 0 0 0 0 0 0l0 1c0 1 0 1 0 1 0 0 0 0 0 0l0 1c0 1 0 1 0 1 0 0 0 0 0 0l0 1c0 1 0 1 0 1 0 0 0 0 0 0l0 1c0 1 0 1 0 1 0 0 0 0 0 0l0 1c0 1 0 1 0 1 0 0 0 0 0 0l0 1c0 1 0 1 0 1 0 0 0 0 0 0l0 1c0 1 0 1 0 1 0 0 0 0 0 1l0 1c0 0 0 0 0 0 0 0 0 0 0 1l0 1c0 0 0 0 0 0 0 0 0 0 0 1l0 1c0 0 0 0 0 0 0 0 0 0 0 1l0 1c0 0 0 0 0 0 0 0 0 0 0 1l0 1c0 0 0 0 0 0 0 0 0 0 0 1l0 1c0 0 0 0 0 0 0 0 0 0 0 1l0 1c0 0 0 0 0 0 0 0 0 0 0 1l0 1c0 0 0 0 0 0 0 0 0 0 0 1l0 0 28 0c5 0 10 5 10 10l0 76c0 5-5 10-10 10l-28 0 0 0c0 0 0 0 0 1 0 0 0 0 0 0l0 1c0 0 0 0 0 0 0 1 0 1 0 1l0 1c0 0 0 0 0 0 0 1 0 1 0 1l0 1c0 0 0 0 0 0 0 1 0 1 0 1l0 1c0 0 0 0 0 0 0 0 0 1 0 1l0 1c0 0 0 0 0 0 0 0 0 1 0 1l0 1c0 0 0 0 0 0 0 0 0 1 0 1l0 1c0 0 0 0 0 0 0 0 0 0 0 1l0 0c0 6-4 10-10 10-5 0-10-4-10-10l0 0c0-1 0-1 0-1 0 0 0 0 0 0l0-1c0 0 0-1 0-1 0 0 0 0 0 0l0-1c0 0 0-1 0-1 0 0 0 0 0 0l0-1c0 0 0-1 0-1 0 0 0 0 0 0l0-1c0 0 0 0 0-1 0 0 0 0 0 0l0-1c0 0 0 0 0-1 0 0 0 0 0 0l0-1c0 0 0 0 0-1 0 0 0 0 0 0l0-1c0 0 0 0 0 0 0-1 0-1 0-1l0 0-28 0c-5 0-10-5-10-10l0-76c0-5 5-10 10-10l28 0 0 0c0-1 0-1 0-1 0 0 0 0 0 0l0-1c0-1 0-1 0-1 0 0 0 0 0 0l0-1c0-1 0-1 0-1 0 0 0 0 0 0l0-1c0-1 0-1 0-1 0 0 0 0 0 0l0-1c0-1 0-1 0-1 0 0 0 0 0 0l0-1c0-1 0-1 0-1 0 0 0 0 0 0l0-1c0-1 0-1 0-1 0 0 0 0 0 0l0-1c0-1 0-1 0-1 0 0 0 0 0 0l0-1c0-1 0-1 0-1 0 0 0 0 0-1l0-1c0 0 0 0 0 0 0 0 0 0 0-1l0-1c0 0 0 0 0 0 0 0 0 0 0-1l0-1c0 0 0 0 0 0 0 0 0 0 0-1l0-1c0 0 0 0 0 0 0 0 0 0 0-1l0-1c0 0 0 0 0 0 0 0 0 0 0-1l0-1c0 0 0 0 0 0 0 0 0 0 0-1l0-1c0 0 0 0 0 0 0 0 0 0 0-1l0-1c0 0 0 0 0 0 0 0 0 0 0-1l0-1c0 0 0 0 0 0 0 0 0 0 0-1l0-1c0 0 0 0 0 0 0 0 0 0 0-1l0-1c0 0 0 0 0 0 0 0 0 0 0-1l0-1c0 0 0 0 0 0 0 0 0 0 0-1l0-1c0 0 0 0 0 0 0 0 0 0 0-1l0-1c0 0 0 0 0 0 0 0 0 0 0-1l0-1c0 0 0 0 0 0 0 0 0 0 0-1l0-1c0 0 0 0 0 0 0 0 0 0 0-1l0-1c0 0 0 0 0 0 0 0 0 0 0-1l0-1c0 0 0 0 0 0 0 0 0 0 0-1l0-1c0 0 0 0 0 0 0 0 0 0 0-1l0-1c0 0 0 0 0 0 0 0 0-1 0-1l0-1c0 0 0 0 0 0 0 0 0-1 0-1l0-1c0 0 0 0 0 0 0 0 0-1 0-1l0-1c0 0 0 0 0 0 0 0 0-1 0-1l0-1c0 0 0 0 0 0 0 0 0-1 0-1l0-1c0 0 0 0 0 0 0 0 0-1 0-1l0-1c0 0 0 0 0 0 0 0 0-1 0-1l0-1c0 0 0 0 0 0 0 0 0-1 0-1l0-1c0 0 0 0 0 0 0 0 0-1 0-1l0-1c0 0 0 0 0 0 0 0 0-1 0-1l0-1c0 0 0 0 0 0 0 0 0-1 0-1l0-1c0 0 0 0 0 0 0 0 0-1 0-1l0-1c0 0 0 0 0 0 0 0 0-1 0-1l0-1c0 0 0 0 0 0 0 0 0-1 0-1l0-1c0 0 0 0 0 0 0 0 0-1 0-1l0-1c0 0 0 0 0 0 0 0 0-1 0-1l0-1c0 0 0 0 0 0 0 0 0-1 0-1l0-1c0 0 0 0 0 0 0 0 0-1 0-1l0-1c0 0 0 0 0 0 0 0 0-1 0-1l0-1c0 0 0 0 0 0 0-1 0-1 0-1l0-1c0 0 0 0 0 0 0-1 0-1 0-1l0-1c0 0 0 0 0 0 0-1 0-1 0-1l0-1c0 0 0 0 0 0 0-1 0-1 0-1l0-1c0 0 0 0 0 0 0-1 0-1 0-1l0-1c0 0 0 0 0 0 0-1 0-1 0-1l0-1c0 0 0 0 0 0 0-1 0-1 0-1l0-1c0 0 0 0 0 0 0-1 0-1 0-1l0-1c0 0 0 0 0 0 0-1 0-1 0-1l0 0-28 0c-5 0-10-5-10-10l0-28 0 0c0 0-1 0-1 0 0 0 0 0 0 0l-1 0c0 0-1 0-1 0 0 0 0 0 0 0l-1 0c0 0-1 0-1 0 0 0 0 0 0 0l-1 0c0 0 0 0-1 0 0 0 0 0 0 0l-1 0c0 0 0 0-1 0 0 0 0 0 0 0l-1 0c0 0 0 0-1 0 0 0 0 0 0 0l-1 0c0 0-1 0-1 0 0 0 0 0 0 0l-1 0c0 0-1 0-1 0 0 0 0 0 0 0l-1 0c0 0-1 0-1 0 0 0 0 0 0 0l-1 0c0 0-1 0-1 0 0 0 0 0 0 0l-1 0c0 0-1 0-1 0 0 0 0 0 0 0l-1 0c0 0-1 0-1 0 0 0 0 0 0 0l-1 0c0 0-1 0-1 0 0 0 0 0 0 0l-1 0c0 0-1 0-1 0 0 0 0 0 0 0l-1 0c0 0-1 0-1 0 0 0 0 0 0 0l-1 0c0 0-1 0-1 0 0 0 0 0 0 0l-1 0c0 0-1 0-1 0 0 0 0 0 0 0l-1 0c0 0-1 0-1 0 0 0 0 0 0 0l-1 0c0 0-1 0-1 0 0 0 0 0 0 0l-1 0c0 0-1 0-1 0 0 0 0 0 0 0l-1 0c0 0-1 0-1 0 0 0 0 0 0 0l-1 0c0 0-1 0-1 0 0 0 0 0 0 0l-1 0c0 0-1 0-1 0 0 0 0 0 0 0l-1 0c0 0-1 0-1 0 0 0 0 0 0 0l-1 0c0 0-1 0-1 0 0 0 0 0 0 0l-1 0c-1 0-1 0-1 0 0 0 0 0 0 0l-1 0c-1 0-1 0-1 0 0 0 0 0 0 0l-1 0c-1 0-1 0-1 0 0 0 0 0 0 0l-1 0c-1 0-1 0-1 0 0 0 0 0 0 0l-1 0c-1 0-1 0-1 0 0 0 0 0 0 0l-1 0c-1 0-1 0-1 0 0 0 0 0 0 0l-1 0c-1 0-1 0-1 0 0 0 0 0 0 0l-1 0c-1 0-1 0-1 0 0 0 0 0 0 0l-1 0c-1 0-1 0-1 0 0 0 0 0 0 0l-1 0c-1 0-1 0-1 0 0 0 0 0 0 0l-1 0c-1 0-1 0-1 0 0 0 0 0 0 0l-1 0c-1 0-1 0-1 0 0 0 0 0 0 0l-1 0c-1 0-1 0-1 0 0 0 0 0 0 0l-1 0c-1 0-1 0-1 0 0 0 0 0 0 0l-1 0c-1 0-1 0-1 0 0 0 0 0 0 0l-1 0c-1 0-1 0-1 0 0 0 0 0 0 0l-1 0c-1 0-1 0-1 0 0 0 0 0 0 0l-1 0c-1 0-1 0-1 0 0 0 0 0 0 0l-2 0c0 0 0 0 0 0 0 0 0 0-1 0l-1 0c0 0 0 0 0 0 0 0 0 0-1 0l-1 0c0 0 0 0 0 0 0 0 0 0-1 0l-1 0c0 0 0 0 0 0 0 0 0 0-1 0l-1 0c0 0 0 0 0 0 0 0 0 0-1 0l-1 0c0 0 0 0 0 0 0 0 0 0-1 0l-1 0c0 0 0 0 0 0 0 0 0 0-1 0l-1 0c0 0 0 0 0 0 0 0 0 0-1 0l-1 0c0 0 0 0 0 0 0 0 0 0-1 0l-1 0c0 0 0 0 0 0 0 0 0 0-1 0l-1 0c0 0 0 0 0 0 0 0 0 0-1 0l-1 0c0 0 0 0 0 0 0 0 0 0-1 0l-1 0c0 0 0 0 0 0 0 0 0 0-1 0l0 0 0 28c0 5-5 10-10 10l-76 0c-5 0-10-5-10-10l0-28 0 0c-1 0-1 0-1 0 0 0 0 0 0 0l-1 0c-1 0-1 0-1 0 0 0 0 0 0 0l-1 0c-1 0-1 0-1 0 0 0 0 0 0 0l-1 0c-1 0-1 0-1 0 0 0 0 0 0 0l-1 0c-1 0-1 0-1 0 0 0 0 0 0 0l-1 0c-1 0-1 0-1 0 0 0 0 0 0 0l-1 0c-1 0-1 0-1 0 0 0 0 0 0 0l-1 0c-1 0-1 0-1 0 0 0 0 0 0 0l-1 0c-1 0-1 0-1 0 0 0 0 0 0 0l-1 0c-1 0-1 0-1 0 0 0 0 0 0 0l-1 0c-1 0-1 0-1 0 0 0 0 0 0 0l-1 0c-1 0-1 0-1 0 0 0 0 0 0 0l-2 0c0 0 0 0 0 0 0 0 0 0-1 0l-1 0c0 0 0 0 0 0 0 0 0 0-1 0l-1 0c0 0 0 0 0 0 0 0 0 0-1 0l-1 0c0 0 0 0 0 0 0 0 0 0-1 0l-1 0c0 0 0 0 0 0 0 0 0 0-1 0l-1 0c0 0 0 0 0 0 0 0 0 0-1 0l-1 0c0 0 0 0 0 0 0 0 0 0-1 0l-1 0c0 0 0 0 0 0 0 0 0 0-1 0l-1 0c0 0 0 0 0 0 0 0 0 0-1 0l-1 0c0 0 0 0 0 0 0 0 0 0-1 0l-1 0c0 0 0 0 0 0 0 0 0 0-1 0l-1 0c0 0 0 0 0 0 0 0 0 0-1 0l-1 0c0 0 0 0 0 0 0 0 0 0-1 0l-1 0c0 0 0 0 0 0 0 0 0 0-1 0l-1 0c0 0 0 0 0 0 0 0 0 0-1 0l-1 0c0 0 0 0 0 0 0 0 0 0-1 0l-1 0c0 0 0 0 0 0 0 0 0 0-1 0l-1 0c0 0 0 0 0 0 0 0 0 0-1 0l-1 0c0 0 0 0 0 0 0 0-1 0-1 0l-1 0c0 0 0 0 0 0 0 0-1 0-1 0l-1 0c0 0 0 0 0 0 0 0-1 0-1 0l-1 0c0 0 0 0 0 0 0 0-1 0-1 0l-1 0c0 0 0 0 0 0 0 0-1 0-1 0l-1 0c0 0 0 0 0 0 0 0-1 0-1 0l-1 0c0 0 0 0 0 0 0 0-1 0-1 0l-1 0c0 0 0 0 0 0 0 0-1 0-1 0l-1 0c0 0 0 0 0 0 0 0-1 0-1 0l-1 0c0 0 0 0 0 0 0 0-1 0-1 0l-1 0c0 0 0 0 0 0 0 0-1 0-1 0l-1 0c0 0 0 0 0 0 0 0-1 0-1 0l-1 0c0 0 0 0 0 0 0 0-1 0-1 0l-1 0c0 0 0 0 0 0 0 0-1 0-1 0l-1 0c0 0 0 0 0 0 0 0-1 0-1 0l-1 0c0 0 0 0 0 0 0 0-1 0-1 0l-1 0c0 0 0 0 0 0 0 0-1 0-1 0l-1 0c0 0 0 0 0 0 0 0-1 0-1 0l-1 0c0 0 0 0 0 0-1 0-1 0-1 0l-1 0c0 0 0 0 0 0-1 0-1 0-1 0l-1 0c0 0 0 0 0 0-1 0-1 0-1 0l-1 0c0 0 0 0 0 0-1 0-1 0-1 0l-1 0c0 0 0 0 0 0-1 0-1 0-1 0l-1 0c0 0 0 0 0 0-1 0-1 0-1 0l-1 0c0 0 0 0 0 0-1 0-1 0-1 0l-1 0c0 0 0 0 0 0-1 0-1 0-1 0l0 0 0 28c0 5-5 10-10 10l-28 0 0 0c0 0 0 0 0 1 0 0 0 0 0 0l0 1c0 0 0 0 0 1 0 0 0 0 0 0l0 1c0 0 0 0 0 1 0 0 0 0 0 0l0 1c0 0 0 0 0 1 0 0 0 0 0 0l0 1c0 0 0 0 0 1 0 0 0 0 0 0l0 1c0 0 0 0 0 1 0 0 0 0 0 0l0 1c0 0 0 0 0 1 0 0 0 0 0 0l0 1c0 0 0 0 0 1 0 0 0 0 0 0l0 1c0 0 0 0 0 1 0 0 0 0 0 0l0 1c0 0 0 1 0 1 0 0 0 0 0 0l0 1c0 0 0 1 0 1 0 0 0 0 0 0l0 1c0 0 0 1 0 1 0 0 0 0 0 0l0 1c0 0 0 1 0 1 0 0 0 0 0 0l0 1c0 0 0 1 0 1 0 0 0 0 0 0l0 1c0 0 0 1 0 1 0 0 0 0 0 0l0 1c0 0 0 1 0 1 0 0 0 0 0 0l0 1c0 0 0 1 0 1 0 0 0 0 0 0l0 1c0 0 0 1 0 1 0 0 0 0 0 0l0 1c0 0 0 1 0 1 0 0 0 0 0 0l0 1c0 0 0 1 0 1 0 0 0 0 0 0l0 1c0 0 0 1 0 1 0 0 0 0 0 0l0 1c0 0 0 1 0 1 0 0 0 0 0 0l0 1c0 0 0 1 0 1 0 0 0 0 0 0l0 1c0 0 0 1 0 1 0 0 0 0 0 0l0 1c0 0 0 1 0 1 0 0 0 0 0 0l0 1c0 0 0 1 0 1 0 0 0 0 0 0l0 1c0 0 0 1 0 1 0 0 0 0 0 0l0 1c0 0 0 1 0 1 0 0 0 0 0 0l0 1c0 1 0 1 0 1 0 0 0 0 0 0l0 1c0 1 0 1 0 1 0 0 0 0 0 0l0 1c0 1 0 1 0 1 0 0 0 0 0 0l0 1c0 1 0 1 0 1 0 0 0 0 0 0l0 1c0 1 0 1 0 1 0 0 0 0 0 0l0 1c0 1 0 1 0 1 0 0 0 0 0 0l0 1c0 1 0 1 0 1 0 0 0 0 0 0l0 1c0 1 0 1 0 1 0 0 0 0 0 0l0 1c0 1 0 1 0 1 0 0 0 0 0 0l0 1c0 1 0 1 0 1 0 0 0 0 0 0l0 1c0 1 0 1 0 1 0 0 0 0 0 0l0 1c0 1 0 1 0 1 0 0 0 0 0 0l0 1c0 1 0 1 0 1 0 0 0 0 0 0l0 1c0 1 0 1 0 1 0 0 0 0 0 0l0 1c0 1 0 1 0 1 0 0 0 0 0 0l0 1c0 1 0 1 0 1 0 0 0 0 0 0l0 1c0 1 0 1 0 1 0 0 0 0 0 0l0 1c0 1 0 1 0 1 0 0 0 0 0 0l0 1c0 1 0 1 0 1 0 0 0 0 0 0l0 1c0 1 0 1 0 1 0 0 0 0 0 1l0 1c0 0 0 0 0 0 0 0 0 0 0 1l0 1c0 0 0 0 0 0 0 0 0 0 0 1l0 1c0 0 0 0 0 0 0 0 0 0 0 1l0 1c0 0 0 0 0 0 0 0 0 0 0 1l0 1c0 0 0 0 0 0 0 0 0 0 0 1l0 1c0 0 0 0 0 0 0 0 0 0 0 1l0 1c0 0 0 0 0 0 0 0 0 0 0 1l0 1c0 0 0 0 0 0 0 0 0 0 0 1l0 0 28 0c5 0 10 5 10 10l0 76c0 5-5 10-10 10l-28 0 0 0c0 1 0 1 0 1 0 0 0 0 0 0l0 1c0 1 0 1 0 1 0 0 0 0 0 0l0 1c0 1 0 1 0 1 0 0 0 0 0 0l0 1c0 1 0 1 0 1 0 0 0 0 0 0l0 1c0 1 0 1 0 1 0 0 0 0 0 0l0 1c0 1 0 1 0 1 0 0 0 0 0 0l0 1c0 1 0 1 0 1 0 0 0 0 0 0l0 1c0 1 0 1 0 1 0 0 0 0 0 0l0 1c0 1 0 1 0 1 0 0 0 0 0 0l0 1c0 1 0 1 0 1 0 0 0 0 0 0l0 1c0 1 0 1 0 1 0 0 0 0 0 0l0 1c0 1 0 1 0 1 0 0 0 0 0 0l0 1c0 1 0 1 0 1 0 0 0 0 0 0l0 1c0 1 0 1 0 1 0 0 0 0 0 0l0 1c0 1 0 1 0 1 0 0 0 0 0 0l0 1c0 1 0 1 0 1 0 0 0 0 0 0l0 1c0 1 0 1 0 1 0 0 0 0 0 0l0 1c0 1 0 1 0 1 0 0 0 0 0 0l0 1c0 1 0 1 0 1 0 0 0 0 0 0l0 1c0 1 0 1 0 1 0 0 0 0 0 0l0 1c0 1 0 1 0 1 0 0 0 0 0 1l0 1c0 0 0 0 0 0 0 0 0 0 0 1l0 1c0 0 0 0 0 0 0 0 0 0 0 1l0 1c0 0 0 0 0 0 0 0 0 0 0 1l0 1c0 0 0 0 0 0 0 0 0 0 0 1l0 1c0 0 0 0 0 0 0 0 0 0 0 1l0 1c0 0 0 0 0 0 0 0 0 0 0 1l0 1c0 0 0 0 0 0 0 0 0 0 0 1l0 1c0 0 0 0 0 0 0 0 0 0 0 1l0 1c0 0 0 0 0 0 0 0 0 0 0 1l0 1c0 0 0 0 0 0 0 0 0 0 0 1l0 1c0 0 0 0 0 0 0 0 0 0 0 1l0 1c0 0 0 0 0 0 0 0 0 0 0 1l0 1c0 0 0 0 0 0 0 0 0 0 0 1l0 1c0 0 0 0 0 0 0 0 0 0 0 1l0 1c0 0 0 0 0 0 0 0 0 0 0 1l0 1c0 0 0 0 0 0 0 0 0 0 0 1l0 1c0 0 0 0 0 0 0 0 0 0 0 1l0 1c0 0 0 0 0 0 0 0 0 0 0 1l0 1c0 0 0 0 0 0 0 0 0 0 0 1l0 1c0 0 0 0 0 0 0 0 0 0 0 1l0 1c0 0 0 0 0 0 0 0 0 1 0 1l0 1c0 0 0 0 0 0 0 0 0 1 0 1l0 1c0 0 0 0 0 0 0 0 0 1 0 1l0 1c0 0 0 0 0 0 0 0 0 1 0 1l0 1c0 0 0 0 0 0 0 0 0 1 0 1l0 1c0 0 0 0 0 0 0 0 0 1 0 1l0 1c0 0 0 0 0 0 0 0 0 1 0 1l0 1c0 0 0 0 0 0 0 0 0 1 0 1l0 1c0 0 0 0 0 0 0 0 0 1 0 1l0 1c0 0 0 0 0 0 0 0 0 1 0 1l0 1c0 0 0 0 0 0 0 0 0 1 0 1l0 1c0 0 0 0 0 0 0 0 0 1 0 1l0 1c0 0 0 0 0 0 0 0 0 1 0 1l0 1c0 0 0 0 0 0 0 0 0 1 0 1l0 1c0 0 0 0 0 0 0 0 0 1 0 1l0 0 28 0c5 0 10 5 10 10l0 28 0 0c0 0 1 0 1 0 0 0 0 0 0 0l1 0c0 0 1 0 1 0 0 0 0 0 0 0l1 0c0 0 1 0 1 0 0 0 0 0 0 0l1 0c0 0 1 0 1 0 0 0 0 0 0 0l1 0c0 0 1 0 1 0 0 0 0 0 0 0l1 0c0 0 1 0 1 0 0 0 0 0 0 0l1 0c0 0 1 0 1 0 0 0 0 0 0 0l1 0c0 0 1 0 1 0 0 0 0 0 0 0l1 0c0 0 1 0 1 0 0 0 0 0 0 0l1 0c0 0 1 0 1 0 0 0 0 0 0 0l1 0c0 0 1 0 1 0 0 0 0 0 0 0l1 0c0 0 1 0 1 0 0 0 0 0 0 0l1 0c0 0 1 0 1 0 0 0 0 0 0 0l1 0c0 0 1 0 1 0 0 0 0 0 0 0l1 0c0 0 1 0 1 0 0 0 0 0 0 0l1 0c0 0 1 0 1 0 0 0 0 0 0 0l1 0c0 0 1 0 1 0 0 0 0 0 0 0l1 0c0 0 1 0 1 0 0 0 0 0 0 0l1 0c0 0 1 0 1 0 0 0 0 0 0 0l1 0c0 0 1 0 1 0 0 0 0 0 0 0l1 0c1 0 1 0 1 0 0 0 0 0 0 0l1 0c1 0 1 0 1 0 0 0 0 0 0 0l1 0c1 0 1 0 1 0 0 0 0 0 0 0l1 0c1 0 1 0 1 0 0 0 0 0 0 0l1 0c1 0 1 0 1 0 0 0 0 0 0 0l1 0c1 0 1 0 1 0 0 0 0 0 0 0l1 0c1 0 1 0 1 0 0 0 0 0 0 0l1 0c1 0 1 0 1 0 0 0 0 0 0 0l1 0c1 0 1 0 1 0 0 0 0 0 0 0l1 0c1 0 1 0 1 0 0 0 0 0 0 0l1 0c1 0 1 0 1 0 0 0 0 0 0 0l1 0c1 0 1 0 1 0 0 0 0 0 0 0l1 0c1 0 1 0 1 0 0 0 0 0 0 0l1 0c1 0 1 0 1 0 0 0 0 0 0 0l1 0c1 0 1 0 1 0 0 0 0 0 0 0l1 0c1 0 1 0 1 0 0 0 0 0 0 0l1 0c1 0 1 0 1 0 0 0 0 0 0 0l1 0c1 0 1 0 1 0 0 0 0 0 0 0l1 0c1 0 1 0 1 0 0 0 0 0 0 0l1 0c1 0 1 0 1 0 0 0 0 0 0 0l1 0c1 0 1 0 1 0 0 0 0 0 0 0l1 0c1 0 1 0 1 0 0 0 0 0 0 0l1 0c1 0 1 0 1 0 0 0 0 0 0 0l1 0c1 0 1 0 1 0 0 0 0 0 0 0l1 0c1 0 1 0 1 0 0 0 0 0 0 0l1 0c1 0 1 0 1 0 0 0 0 0 0 0l1 0c1 0 1 0 1 0 0 0 0 0 0 0l2 0c0 0 0 0 0 0 0 0 0 0 1 0l1 0c0 0 0 0 0 0 0 0 0 0 1 0l1 0c0 0 0 0 0 0 0 0 0 0 1 0l1 0c0 0 0 0 0 0 0 0 0 0 1 0l1 0c0 0 0 0 0 0 0 0 0 0 1 0l1 0c0 0 0 0 0 0 0 0 0 0 1 0l1 0c0 0 0 0 0 0 0 0 0 0 1 0l1 0c0 0 0 0 0 0 0 0 0 0 1 0l1 0c0 0 0 0 0 0 0 0 0 0 1 0l0 0 0-28c0-5 5-10 10-10l76 0c5 0 10 5 10 10l0 28 0 0c0 0 1 0 1 0 0 0 0 0 0 0l1 0c0 0 1 0 1 0 0 0 0 0 0 0l1 0c0 0 1 0 1 0 0 0 0 0 0 0l1 0c0 0 1 0 1 0 0 0 0 0 0 0l1 0c0 0 1 0 1 0 0 0 0 0 0 0l1 0c0 0 1 0 1 0 0 0 0 0 0 0l1 0c1 0 1 0 1 0 0 0 0 0 0 0l1 0c1 0 1 0 1 0 0 0 0 0 0 0l1 0c1 0 1 0 1 0 0 0 0 0 0 0l1 0c1 0 1 0 1 0 0 0 0 0 0 0l1 0c1 0 1 0 1 0 0 0 0 0 0 0l1 0c1 0 1 0 1 0 0 0 0 0 0 0l1 0c1 0 1 0 1 0 0 0 0 0 0 0l1 0c1 0 1 0 1 0 0 0 0 0 0 0l1 0c1 0 1 0 1 0 0 0 0 0 0 0l1 0c1 0 1 0 1 0 0 0 0 0 0 0l1 0c1 0 1 0 1 0 0 0 0 0 0 0l1 0c1 0 1 0 1 0 0 0 0 0 0 0l1 0c1 0 1 0 1 0 0 0 0 0 0 0l1 0c1 0 1 0 1 0 0 0 0 0 0 0l1 0c1 0 1 0 1 0 0 0 0 0 0 0l1 0c1 0 1 0 1 0 0 0 0 0 0 0l1 0c1 0 1 0 1 0 0 0 0 0 0 0l1 0c1 0 1 0 1 0 0 0 0 0 0 0l1 0c1 0 1 0 1 0 0 0 0 0 0 0l1 0c1 0 1 0 1 0 0 0 0 0 0 0l1 0c1 0 1 0 1 0 0 0 0 0 0 0l1 0c1 0 1 0 1 0 0 0 0 0 0 0l1 0c1 0 1 0 1 0 0 0 0 0 0 0l1 0c1 0 1 0 1 0 0 0 0 0 0 0l1 0c1 0 1 0 1 0 0 0 0 0 0 0l1 0c1 0 1 0 1 0 0 0 0 0 0 0l1 0c1 0 1 0 1 0 0 0 0 0 1 0l1 0c0 0 0 0 0 0 0 0 0 0 1 0l1 0c0 0 0 0 0 0 0 0 0 0 1 0l1 0c0 0 0 0 0 0 0 0 0 0 1 0l1 0c0 0 0 0 0 0 0 0 0 0 1 0l1 0c0 0 0 0 0 0 0 0 0 0 1 0l1 0c0 0 0 0 0 0 0 0 0 0 1 0l1 0c0 0 0 0 0 0 0 0 0 0 1 0l1 0c0 0 0 0 0 0 0 0 0 0 1 0l1 0c0 0 0 0 0 0 0 0 0 0 1 0l1 0c0 0 0 0 0 0 0 0 0 0 1 0l1 0c0 0 0 0 0 0 0 0 0 0 1 0l1 0c0 0 0 0 0 0 0 0 0 0 1 0l1 0c0 0 0 0 0 0 0 0 0 0 1 0l1 0c0 0 0 0 0 0 0 0 0 0 1 0l1 0c0 0 0 0 0 0 0 0 0 0 1 0l1 0c0 0 0 0 0 0 0 0 0 0 1 0l1 0c0 0 0 0 0 0 0 0 0 0 1 0l1 0c0 0 0 0 0 0 0 0 0 0 1 0l1 0c0 0 0 0 0 0 0 0 0 0 1 0l1 0c0 0 0 0 0 0 0 0 0 0 1 0l1 0c0 0 0 0 0 0 0 0 0 0 1 0l1 0c0 0 0 0 0 0 0 0 0 0 1 0l1 0c0 0 0 0 0 0 0 0 0 0 1 0l0 0 0-28c0-5 5-10 10-10l28 0 0 0c0 0 0 0 0 0 0-1 0-1 0-1l0-1c0 0 0 0 0 0 0 0 0-1 0-1l0-1c0 0 0 0 0 0 0 0 0-1 0-1l0-1c0 0 0 0 0 0 0 0 0-1 0-1l0-1c0 0 0 0 0 0 0 0 0 0 0-1l0-1c0 0 0 0 0 0 0 0 0 0 0-1l0-1c0 0 0 0 0 0 0 0 0 0 0 0l0-1c0-1 0-1 0-1 0 0 0 0 0 0l0-1c0-1 0-1 0-1 0 0 0 0 0 0l0-1c0-5 5-10 10-10 6 0 10 5 10 10l0 1c0 0 0 0 0 0 0 0 0 0 0 1l0 1c0 0 0 0 0 0 0 0 0 0 0 1l0 1c0 0 0 0 0 0 0 0 0 0 0 0l0 1c0 1 0 1 0 1 0 0 0 0 0 0l0 1c0 1 0 1 0 1 0 0 0 0 0 0l0 1c0 0 0 1 0 1 0 0 0 0 0 0l0 1c0 0 0 1 0 1 0 0 0 0 0 0l0 1c0 0 0 1 0 1 0 0 0 0 0 0l0 1c0 0 0 0 0 1 0 0 0 0 0 0l0 0 28 0c5 0 10 5 10 10z m-76-142l56 0 0-56-56 0z m0-208l56 0 0-56-56 0z m-208 0l56 0 0-56-56 0z m-153-56l-55 0 0 56 55 0z m1 208l-56 0 0 56 56 0z m0 208l-56 0 0 56 56 0z m208 0l-56 0 0 56 56 0z m208 0l-56 0 0 56 56 0z m-237-253c6 0 10 4 10 10l0 54 54 0c5 0 10 4 10 10 0 5-5 10-10 10l-54 0 0 53c0 6-4 10-10 10-5 0-10-4-10-10l0-53-53 0c-6 0-10-5-10-10 0-6 4-10 10-10l53 0 0-54c0-6 5-10 10-10z m218 180c0 1 0 1-1 2 0 1 0 1-1 2 0 0-1 0-1 1-1 0-1 0-2 1-1 0-1 0-2 0-1 1-3 1-4 0 0 0-1 0-2 0 0-1-1-1-1-1-1-1-1-1-2-1 0-1-1-1-1-2-1-1-1-1-1-2 0 0-1-1-1-2 0 0 0-1 0-2 0 0 0-1 0-1 0-1 1-2 1-2 0-1 0-2 1-2 0-1 1-1 1-2 1 0 1 0 2-1 0 0 1-1 1-1 1 0 2 0 2 0 1 0 2-1 2-1 1 0 1 1 2 1 1 0 1 0 2 0 1 0 1 1 2 1 0 1 1 1 1 1 1 1 1 1 1 2 1 0 1 1 1 2 1 0 1 1 1 2 0 0 0 1 0 1 0 1 0 2 0 2 0 1 0 2-1 2z"/>
<glyph glyph-name="share" unicode="&#75;" d="M406 183c-30 0-56-14-73-36l-140 79c3 9 5 20 5 30 0 11-2 21-6 30l141 79c17-22 43-36 73-36 50 0 91 41 91 91 0 51-41 92-91 92-51 0-92-41-92-92 0-10 2-20 5-30l-140-78c-17 22-43 36-73 36-50 0-91-41-91-92 0-50 41-91 91-91 30 0 56 14 73 36l141-79c-4-10-6-20-6-30 0-51 41-92 92-92 50 0 91 41 91 92 0 50-41 91-91 91z m0 300c34 0 63-28 63-63 0-34-29-62-63-62-35 0-63 28-63 62 0 35 28 63 63 63z m-300-290c-34 0-63 28-63 63 0 35 29 63 63 63 35 0 63-28 63-63 0-35-28-63-63-63z m300-164c-35 0-63 28-63 63 0 34 28 62 63 62 34 0 63-28 63-62 0-35-29-63-63-63z"/>
<glyph glyph-name="maximize" unicode="&#76;" d="M146 89l-37 0 85 84-21 21-85-84 0 36-30 0 0-87 88 0z m220 0l0-30 88 0 0 87-30 0 0-36-85 84-21-21 85-84z m-278 313l85-84 21 21-85 84 37 0 0 30-88 0 0-87 30 0z m251-84l85 84 0-36 30 0 0 87-88 0 0-30 37 0-85-84z m-339 194l0-512 512 0 0 512z m482-482l-452 0 0 452 452 0z"/>
<glyph glyph-name="contract" unicode="&#77;" d="M499 351c-18 17-46 17-64 0-5-6-40-40-45-45l0 119c0 12-5 23-13 31l-43 43c-8 8-19 13-31 13l-258 0c-25 0-45-20-45-45l0-422c0-25 20-45 45-45l300 0c25 0 45 20 45 45l0 133 109 109c17 18 17 46 0 64z m-199 131c3 0 8 0 13-4l43-43c4-5 4-10 4-13l-60 0z m60-437c0-8-7-15-15-15l-300 0c-8 0-15 7-15 15l0 422c0 8 7 15 15 15l225 0 0-75c0-8 7-15 15-15l75 0 0-116c0 0-44-45-44-45l-21-21c-2-1-3-3-4-6l-21-63c-2-6-1-12 3-16 4-4 10-5 16-3l63 21c3 1 5 2 6 4l2 1z m-34 155l22-22-9-8-31-10 10 31z m43 0l-21 21c11 11 61 61 72 72l21-21z m109 108l-16-15-21 21 15 16c6 6 16 6 22 0 5-6 5-16 0-22z m-193 54l-210 0c-8 0-15-7-15-15 0-8 7-15 15-15l210 0c8 0 15 7 15 15 0 8-7 15-15 15z m-60-60l-150 0c-8 0-15-7-15-15 0-8 7-15 15-15l150 0c8 0 15 7 15 15 0 8-7 15-15 15z m0-60l-150 0c-8 0-15-7-15-15 0-8 7-15 15-15l150 0c8 0 15 7 15 15 0 8-7 15-15 15z m0-60l-150 0c-8 0-15-7-15-15 0-8 7-15 15-15l150 0c8 0 15 7 15 15 0 8-7 15-15 15z m60-92l-90 0c-8 0-15-7-15-15 0-8 7-15 15-15l90 0c8 0 15 7 15 15 0 8-7 15-15 15z"/>
<glyph glyph-name="copy-content" unicode="&#78;" d="M361 512l-280 0c-25 0-46-21-46-47l0-325 46 0 0 325 280 0z m70-93l-256 0c-26 0-47-21-47-47l0-325c0-26 21-47 47-47l256 0c25 0 46 21 46 47l0 325c0 26-21 47-46 47z m0-372l-256 0 0 325 256 0z"/>
<glyph glyph-name="medical-history" unicode="&#79;" d="M256 512c-19 0-34-15-34-33l0-8-25 0c-6 0-11-3-14-8l-77 0c-20 0-36-16-36-36l0-391c0-20 16-36 36-36l300 0c19 0 35 16 35 36l0 202c0 5-3 8-7 8-4 0-8-3-8-8l0-202c0-12-9-21-20-21l-300 0c-12 0-21 9-21 21l0 391c0 12 9 21 21 21l75 0 0-16-69 0c-6 0-11-5-11-10l0-380c0-6 5-11 11-11l126 0c4 0 8 4 8 8 0 4-4 7-8 7l-122 0 0 371 66 0c1-8 7-13 15-13l118 0c7 0 13 6 15 13l65 0 0-371-122 0c-4 0-7-3-7-7 0-4 3-8 7-8l127 0c5 0 10 5 10 11l0 380c0 5-5 10-10 10l-70 0 0 16 76 0c11 0 20-9 20-21l0-154c0-4 4-7 8-7 4 0 7 3 7 7l0 154c0 20-16 36-35 36l-78 0c-3 5-8 8-13 8l-26 0 0 8c0 18-15 33-33 33z m-19-33c0 10 8 18 19 18 10 0 18-8 18-18l0-8-37 0z m78-23c0 0 0 0 0 0 0 0 0 0 0-1l0-35c0-1 0-1 0-1l-118 0c-1 0-1 0-1 1 0 20 0 15 0 35 0 1 0 1 0 1 0 0 0 0 1 0z m-42-78l-34 0c-7 0-13-6-13-13l0-20-20 0c-7 0-13-6-13-13l0-34c0-7 6-13 13-13l20 0 0-20c0-7 6-13 13-13l34 0c7 0 13 6 13 13l0 20 20 0c7 0 13 6 13 13l0 34c0 7-6 13-13 13l-20 0 0 20c0 7-6 13-13 13z m31-48l0-30-20 0c-7 0-13-6-13-13l0-20-30 0 0 20c0 7-6 13-13 13l-20 0 0 30 20 0c7 0 13 6 13 13l0 20 30 0 0-20c0-7 6-13 13-13z m-164-114c0-4 3-7 7-7l217 0c4 0 8 3 8 7 0 4-4 8-8 8l-217 0c-4 0-7-4-7-8z m7-38l217 0c4 0 8 3 8 7 0 5-4 8-8 8l-217 0c-4 0-7-3-7-8 0-4 3-7 7-7z m0-31l217 0c4 0 8 3 8 8 0 4-4 7-8 7l-217 0c-4 0-7-3-7-7 0-5 3-8 7-8z m0-31l217 0c4 0 8 4 8 8 0 4-4 7-8 7l-217 0c-4 0-7-3-7-7 0-4 3-8 7-8z m0-31l217 0c4 0 8 4 8 8 0 4-4 7-8 7l-217 0c-4 0-7-3-7-7 0-4 3-8 7-8z"/>
<glyph glyph-name="statistics" unicode="&#80;" d="M76 272c12 0 23 5 31 13l45-23c-1-1-1-3-1-5 0-25 20-45 45-45 25 0 45 20 45 45 0 7-2 13-5 19l61 61c6-3 12-5 19-5 25 0 45 20 45 45 0 5-1 9-2 13l52 40c7-5 16-8 25-8 25 0 45 20 45 45 0 25-20 45-45 45-25 0-45-20-45-45 0-5 1-9 2-13l-52-40c-7 5-16 8-25 8-25 0-45-20-45-45 0-7 2-13 5-19l-61-61c-6 3-12 5-19 5-12 0-23-5-31-13l-45 23c1 1 1 3 1 5 0 25-20 45-45 45-25 0-45-20-45-45 0-25 20-45 45-45z m421-242l-16 0 0 317c0 8-7 15-15 15l-60 0c-8 0-15-7-15-15l0-317-30 0 0 227c0 8-7 15-15 15l-60 0c-8 0-15-7-15-15l0-227-30 0 0 107c0 8-7 15-15 15l-60 0c-8 0-15-7-15-15l0-107-30 0 0 167c0 8-7 15-15 15l-60 0c-8 0-15-7-15-15l0-167-16 0c-8 0-15-7-15-15 0-8 7-15 15-15l482 0c8 0 15 7 15 15 0 8-7 15-15 15z"/>
</font>
</defs>
</svg>
